G75*
G70*
%OFA0B0*%
%FSLAX24Y24*%
%IPPOS*%
%LPD*%
%AMOC8*
5,1,8,0,0,1.08239X$1,22.5*
%
%ADD10C,0.0000*%
%ADD11R,0.0740X0.0740*%
%ADD12C,0.0740*%
%ADD13C,0.0660*%
%ADD14C,0.0515*%
%ADD15C,0.1122*%
%ADD16R,0.0650X0.0650*%
%ADD17C,0.0650*%
%ADD18C,0.0160*%
%ADD19R,0.0356X0.0356*%
D10*
X001683Y001189D02*
X001683Y020874D01*
X021368Y020874D01*
X021368Y001189D01*
X001683Y001189D01*
D11*
X002183Y005189D03*
X002183Y010189D03*
X002183Y015189D03*
X007183Y019689D03*
X020683Y010189D03*
X020683Y005189D03*
D12*
X020683Y004189D03*
X020683Y003189D03*
X020683Y002189D03*
X020683Y007189D03*
X020683Y008189D03*
X020683Y009189D03*
X006183Y019689D03*
X005183Y019689D03*
X004183Y019689D03*
X003183Y019689D03*
X002183Y014189D03*
X002183Y013189D03*
X002183Y012189D03*
X002183Y009189D03*
X002183Y008189D03*
X002183Y007189D03*
X002183Y004189D03*
X002183Y003189D03*
X002183Y002189D03*
D13*
X005183Y005689D03*
X005183Y006689D03*
X005183Y007689D03*
X009183Y007689D03*
X009183Y006689D03*
X009183Y005689D03*
X009183Y004689D03*
X009183Y003689D03*
X009183Y002689D03*
X012183Y002689D03*
X013183Y002689D03*
X012183Y003689D03*
X012183Y004689D03*
X012183Y005689D03*
X012183Y006689D03*
X012183Y007689D03*
X012183Y008689D03*
X012183Y009689D03*
X012183Y010689D03*
X012183Y011689D03*
X012183Y012689D03*
X012183Y013689D03*
X012183Y014689D03*
X012183Y015689D03*
X013183Y018189D03*
X013183Y020189D03*
X010183Y020189D03*
X010183Y018189D03*
X009183Y015689D03*
X009183Y014689D03*
X009183Y013689D03*
X009183Y012689D03*
X009183Y011689D03*
X009183Y010689D03*
X009183Y009689D03*
X009183Y008689D03*
X016183Y007689D03*
X018683Y007689D03*
X019683Y012189D03*
X015683Y016189D03*
D14*
X017983Y017089D03*
X018683Y017089D03*
X019353Y017089D03*
X019043Y017709D03*
X018353Y017709D03*
D15*
X017246Y019189D03*
X020120Y019189D03*
D16*
X015683Y014189D03*
X014183Y007689D03*
D17*
X014183Y008689D03*
X014683Y014189D03*
D18*
X014683Y014189D01*
X014683Y013684D01*
X014643Y013684D01*
X014565Y013697D01*
X014489Y013721D01*
X014418Y013757D01*
X014354Y013804D01*
X014298Y013860D01*
X014251Y013925D01*
X014215Y013995D01*
X014191Y014071D01*
X014178Y014150D01*
X014178Y014189D01*
X014683Y014189D01*
X014683Y014189D01*
X014683Y013684D01*
X014723Y013684D01*
X014801Y013697D01*
X014877Y013721D01*
X014948Y013757D01*
X015012Y013804D01*
X015068Y013860D01*
X015115Y013925D01*
X015151Y013995D01*
X015176Y014071D01*
X015188Y014150D01*
X015188Y014189D01*
X014684Y014189D01*
X014684Y014189D01*
X015188Y014189D01*
X015188Y014229D01*
X015176Y014308D01*
X015151Y014383D01*
X015115Y014454D01*
X015068Y014518D01*
X015012Y014574D01*
X014948Y014621D01*
X014877Y014657D01*
X014801Y014682D01*
X014723Y014694D01*
X014683Y014694D01*
X014643Y014694D01*
X014565Y014682D01*
X014489Y014657D01*
X014418Y014621D01*
X014354Y014574D01*
X014298Y014518D01*
X014251Y014454D01*
X014215Y014383D01*
X014191Y014308D01*
X014178Y014229D01*
X014178Y014189D01*
X014683Y014189D01*
X014683Y014190D02*
X014683Y014694D01*
X014683Y014190D01*
X014683Y014190D01*
X014683Y014190D01*
X014683Y014348D02*
X014683Y014348D01*
X014683Y014507D02*
X014683Y014507D01*
X014683Y014665D02*
X014683Y014665D01*
X014515Y014665D02*
X012693Y014665D01*
X012693Y014649D02*
X012693Y014689D01*
X012184Y014689D01*
X012184Y014689D01*
X012693Y014689D01*
X012693Y014729D01*
X012681Y014809D01*
X012656Y014885D01*
X012619Y014957D01*
X012572Y015021D01*
X012515Y015078D01*
X012450Y015125D01*
X012379Y015162D01*
X012303Y015187D01*
X012223Y015199D01*
X012183Y015199D01*
X012143Y015199D01*
X012064Y015187D01*
X011987Y015162D01*
X011916Y015125D01*
X011851Y015078D01*
X011794Y015021D01*
X011747Y014957D01*
X011711Y014885D01*
X011686Y014809D01*
X011673Y014729D01*
X011673Y014689D01*
X011673Y014649D01*
X011686Y014570D01*
X011711Y014494D01*
X011747Y014422D01*
X011794Y014357D01*
X011851Y014300D01*
X011916Y014253D01*
X011987Y014217D01*
X012064Y014192D01*
X012143Y014179D01*
X012183Y014179D01*
X012183Y014689D01*
X012183Y014689D01*
X011673Y014689D01*
X012183Y014689D01*
X012183Y014689D01*
X011683Y014689D01*
X011673Y014665D02*
X009653Y014665D01*
X009653Y014596D02*
X009653Y014783D01*
X009582Y014956D01*
X009449Y015088D01*
X009277Y015159D01*
X009090Y015159D01*
X008917Y015088D01*
X008785Y014956D01*
X008713Y014783D01*
X008713Y014596D01*
X008785Y014423D01*
X008917Y014291D01*
X009090Y014219D01*
X009277Y014219D01*
X009449Y014291D01*
X009582Y014423D01*
X009653Y014596D01*
X009616Y014507D02*
X011706Y014507D01*
X011803Y014348D02*
X009507Y014348D01*
X009449Y014088D02*
X009277Y014159D01*
X009090Y014159D01*
X008917Y014088D01*
X008785Y013956D01*
X008713Y013783D01*
X008713Y013596D01*
X008785Y013423D01*
X008917Y013291D01*
X009090Y013219D01*
X009277Y013219D01*
X009449Y013291D01*
X009582Y013423D01*
X009653Y013596D01*
X009653Y013783D01*
X009582Y013956D01*
X009449Y014088D01*
X009506Y014031D02*
X011860Y014031D01*
X011917Y014088D02*
X011785Y013956D01*
X011713Y013783D01*
X011713Y013596D01*
X011785Y013423D01*
X011917Y013291D01*
X012090Y013219D01*
X012277Y013219D01*
X012449Y013291D01*
X012582Y013423D01*
X012598Y013463D01*
X013152Y012909D01*
X013092Y012909D01*
X012601Y012909D01*
X012582Y012956D01*
X012449Y013088D01*
X012277Y013159D01*
X012090Y013159D01*
X011917Y013088D01*
X011785Y012956D01*
X011713Y012783D01*
X011713Y012596D01*
X011785Y012423D01*
X011917Y012291D01*
X012090Y012219D01*
X012277Y012219D01*
X012449Y012291D01*
X012582Y012423D01*
X012601Y012469D01*
X013092Y012469D01*
X013652Y011909D01*
X013592Y011909D01*
X012601Y011909D01*
X012582Y011956D01*
X012449Y012088D01*
X012277Y012159D01*
X012090Y012159D01*
X011917Y012088D01*
X011785Y011956D01*
X011713Y011783D01*
X011713Y011596D01*
X011785Y011423D01*
X011917Y011291D01*
X012090Y011219D01*
X012277Y011219D01*
X012449Y011291D01*
X012582Y011423D01*
X012601Y011469D01*
X013592Y011469D01*
X017092Y007969D01*
X017274Y007969D01*
X018299Y007969D01*
X018285Y007956D01*
X018266Y007909D01*
X016601Y007909D01*
X016582Y007956D01*
X016449Y008088D01*
X016277Y008159D01*
X016090Y008159D01*
X015917Y008088D01*
X015785Y007956D01*
X015713Y007783D01*
X015713Y007596D01*
X015785Y007423D01*
X015799Y007409D01*
X015092Y007409D01*
X014963Y007280D01*
X013592Y005909D01*
X012601Y005909D01*
X012582Y005956D01*
X012449Y006088D01*
X012277Y006159D01*
X012090Y006159D01*
X011917Y006088D01*
X011785Y005956D01*
X011713Y005783D01*
X011713Y005596D01*
X011785Y005423D01*
X011917Y005291D01*
X012090Y005219D01*
X012277Y005219D01*
X012449Y005291D01*
X012582Y005423D01*
X012601Y005469D01*
X013592Y005469D01*
X013774Y005469D01*
X015274Y006969D01*
X020222Y006969D01*
X020251Y006900D01*
X020394Y006757D01*
X020582Y006679D01*
X020785Y006679D01*
X020972Y006757D01*
X021115Y006900D01*
X021188Y007076D01*
X021188Y005622D01*
X021111Y005699D01*
X020255Y005699D01*
X020173Y005617D01*
X020173Y005409D01*
X013592Y005409D01*
X013463Y005280D01*
X013092Y004909D01*
X012601Y004909D01*
X012582Y004956D01*
X012449Y005088D01*
X012277Y005159D01*
X012090Y005159D01*
X011917Y005088D01*
X011785Y004956D01*
X011713Y004783D01*
X011713Y004596D01*
X011785Y004423D01*
X011917Y004291D01*
X012090Y004219D01*
X012277Y004219D01*
X012449Y004291D01*
X012582Y004423D01*
X012601Y004469D01*
X013092Y004469D01*
X013274Y004469D01*
X013774Y004969D01*
X020173Y004969D01*
X020173Y004761D01*
X020255Y004679D01*
X020534Y004679D01*
X020394Y004622D01*
X020251Y004478D01*
X020173Y004291D01*
X020173Y004088D01*
X020202Y004019D01*
X020092Y003909D01*
X012601Y003909D01*
X012582Y003956D01*
X012449Y004088D01*
X012277Y004159D01*
X012090Y004159D01*
X011917Y004088D01*
X011785Y003956D01*
X011713Y003783D01*
X011713Y003596D01*
X011785Y003423D01*
X011917Y003291D01*
X012090Y003219D01*
X012277Y003219D01*
X012449Y003291D01*
X012582Y003423D01*
X012601Y003469D01*
X020092Y003469D01*
X020209Y003469D01*
X020173Y003400D01*
X020147Y003318D01*
X020133Y003233D01*
X020133Y003209D01*
X020663Y003209D01*
X020663Y003169D01*
X020133Y003169D01*
X020133Y003146D01*
X020147Y003060D01*
X020173Y002978D01*
X020213Y002901D01*
X020264Y002831D01*
X020325Y002770D01*
X020395Y002719D01*
X020472Y002680D01*
X020507Y002668D01*
X020394Y002622D01*
X020251Y002478D01*
X020222Y002409D01*
X012774Y002409D01*
X012634Y002550D01*
X012653Y002596D01*
X012653Y002783D01*
X012582Y002956D01*
X012449Y003088D01*
X012277Y003159D01*
X012090Y003159D01*
X011917Y003088D01*
X011785Y002956D01*
X011713Y002783D01*
X011713Y002596D01*
X011785Y002423D01*
X011917Y002291D01*
X012090Y002219D01*
X012277Y002219D01*
X012323Y002238D01*
X012592Y001969D01*
X012774Y001969D01*
X020222Y001969D01*
X020251Y001900D01*
X020394Y001757D01*
X020582Y001679D01*
X020785Y001679D01*
X020972Y001757D01*
X021115Y001900D01*
X021188Y002076D01*
X021188Y001369D01*
X001863Y001369D01*
X001863Y001788D01*
X001894Y001757D01*
X002082Y001679D01*
X002285Y001679D01*
X002472Y001757D01*
X002615Y001900D01*
X002644Y001969D01*
X005092Y001969D01*
X005463Y001598D01*
X005592Y001469D01*
X009592Y001469D01*
X009774Y001469D01*
X010274Y001969D01*
X010403Y002098D01*
X010403Y002598D01*
X010403Y002780D01*
X009634Y003550D01*
X009653Y003596D01*
X009653Y003783D01*
X009634Y003829D01*
X011274Y005469D01*
X011403Y005598D01*
X011403Y009598D01*
X012043Y010238D01*
X012090Y010219D01*
X012277Y010219D01*
X012449Y010291D01*
X012582Y010423D01*
X012653Y010596D01*
X012653Y010783D01*
X012582Y010956D01*
X012449Y011088D01*
X012277Y011159D01*
X012090Y011159D01*
X011917Y011088D01*
X011785Y010956D01*
X011713Y010783D01*
X011713Y010596D01*
X011732Y010550D01*
X010963Y009780D01*
X010963Y009598D01*
X010963Y005780D01*
X009323Y004140D01*
X009277Y004159D01*
X009090Y004159D01*
X008917Y004088D01*
X008785Y003956D01*
X008713Y003783D01*
X008713Y003596D01*
X008785Y003423D01*
X008917Y003291D01*
X009090Y003219D01*
X009277Y003219D01*
X009323Y003238D01*
X009963Y002598D01*
X009963Y002280D01*
X009592Y001909D01*
X005774Y001909D01*
X005274Y002409D01*
X005092Y002409D01*
X002644Y002409D01*
X002615Y002478D01*
X002472Y002622D01*
X002359Y002668D01*
X002394Y002680D01*
X002471Y002719D01*
X002541Y002770D01*
X002603Y002831D01*
X002654Y002901D01*
X002693Y002978D01*
X002720Y003060D01*
X002733Y003146D01*
X002733Y003169D01*
X002203Y003169D01*
X002203Y003209D01*
X002733Y003209D01*
X002733Y003233D01*
X002720Y003318D01*
X002693Y003400D01*
X002654Y003478D01*
X002603Y003548D01*
X002541Y003609D01*
X002471Y003660D01*
X002394Y003699D01*
X002359Y003710D01*
X002472Y003757D01*
X002615Y003900D01*
X002693Y004088D01*
X002693Y004291D01*
X002615Y004478D01*
X002472Y004622D01*
X002333Y004679D01*
X002611Y004679D01*
X002693Y004761D01*
X002693Y005617D01*
X002611Y005699D01*
X001863Y005699D01*
X001863Y006788D01*
X001894Y006757D01*
X002082Y006679D01*
X002285Y006679D01*
X002472Y006757D01*
X002615Y006900D01*
X002693Y007088D01*
X002693Y007291D01*
X002615Y007478D01*
X002472Y007622D01*
X002309Y007689D01*
X002472Y007757D01*
X002615Y007900D01*
X002693Y008088D01*
X002693Y008291D01*
X002615Y008478D01*
X002472Y008622D01*
X002309Y008689D01*
X002472Y008757D01*
X002615Y008900D01*
X002693Y009088D01*
X002693Y009291D01*
X002615Y009478D01*
X002472Y009622D01*
X002333Y009679D01*
X002611Y009679D01*
X002693Y009761D01*
X002693Y010617D01*
X002611Y010699D01*
X001863Y010699D01*
X001863Y011788D01*
X001894Y011757D01*
X002082Y011679D01*
X002285Y011679D01*
X002472Y011757D01*
X002615Y011900D01*
X002693Y012088D01*
X002693Y012291D01*
X002615Y012478D01*
X002472Y012622D01*
X002309Y012689D01*
X002472Y012757D01*
X002615Y012900D01*
X002693Y013088D01*
X002693Y013291D01*
X002615Y013478D01*
X002472Y013622D01*
X002309Y013689D01*
X002472Y013757D01*
X002615Y013900D01*
X002693Y014088D01*
X002693Y014291D01*
X002615Y014478D01*
X002472Y014622D01*
X002333Y014679D01*
X002611Y014679D01*
X002693Y014761D01*
X002693Y015617D01*
X002963Y015617D01*
X002963Y015775D02*
X001863Y015775D01*
X001863Y015699D02*
X001863Y020694D01*
X010112Y020694D01*
X010064Y020687D01*
X009987Y020662D01*
X009916Y020625D01*
X009851Y020578D01*
X009794Y020521D01*
X009747Y020457D01*
X009711Y020385D01*
X009686Y020309D01*
X009673Y020229D01*
X009673Y020189D01*
X009673Y020149D01*
X009686Y020070D01*
X009711Y019994D01*
X009747Y019922D01*
X009794Y019857D01*
X009851Y019800D01*
X009916Y019753D01*
X009987Y019717D01*
X010064Y019692D01*
X010143Y019679D01*
X010183Y019679D01*
X010183Y020189D01*
X010183Y020189D01*
X009673Y020189D01*
X010183Y020189D01*
X010183Y020189D01*
X013183Y020189D01*
X013183Y020189D01*
X013183Y019679D01*
X013143Y019679D01*
X013064Y019692D01*
X012987Y019717D01*
X012916Y019753D01*
X012851Y019800D01*
X012794Y019857D01*
X012747Y019922D01*
X012711Y019994D01*
X012686Y020070D01*
X012673Y020149D01*
X012673Y020189D01*
X013183Y020189D01*
X013183Y020189D01*
X013683Y020189D01*
X013693Y020189D02*
X013693Y020229D01*
X013681Y020309D01*
X013656Y020385D01*
X013619Y020457D01*
X013572Y020521D01*
X013515Y020578D01*
X013450Y020625D01*
X013379Y020662D01*
X013303Y020687D01*
X013254Y020694D01*
X021188Y020694D01*
X021188Y010622D01*
X021111Y010699D01*
X020255Y010699D01*
X020173Y010617D01*
X020173Y010409D01*
X016274Y010409D01*
X012774Y013909D01*
X012601Y013909D01*
X012582Y013956D01*
X012449Y014088D01*
X012277Y014159D01*
X012090Y014159D01*
X011917Y014088D01*
X012076Y014190D02*
X004403Y014190D01*
X004403Y014348D02*
X008859Y014348D01*
X008750Y014507D02*
X004403Y014507D01*
X004403Y014665D02*
X008713Y014665D01*
X008730Y014824D02*
X004403Y014824D01*
X004403Y014983D02*
X008812Y014983D01*
X009046Y015141D02*
X004403Y015141D01*
X004403Y015300D02*
X008908Y015300D01*
X008917Y015291D02*
X009090Y015219D01*
X009277Y015219D01*
X009449Y015291D01*
X009582Y015423D01*
X009653Y015596D01*
X009653Y015783D01*
X009582Y015956D01*
X009449Y016088D01*
X009409Y016104D01*
X010274Y016969D01*
X010403Y017098D01*
X010403Y017772D01*
X010449Y017791D01*
X010582Y017923D01*
X010653Y018096D01*
X010653Y018283D01*
X010582Y018456D01*
X010449Y018588D01*
X010277Y018659D01*
X010090Y018659D01*
X010043Y018640D01*
X008903Y019780D01*
X008774Y019909D01*
X007693Y019909D01*
X007693Y020117D01*
X007611Y020199D01*
X006755Y020199D01*
X006673Y020117D01*
X006673Y019839D01*
X006615Y019978D01*
X006472Y020122D01*
X006285Y020199D01*
X006082Y020199D01*
X005894Y020122D01*
X005751Y019978D01*
X005704Y019866D01*
X005693Y019900D01*
X005654Y019978D01*
X005603Y020048D01*
X005541Y020109D01*
X005471Y020160D01*
X005394Y020199D01*
X005312Y020226D01*
X005226Y020239D01*
X005203Y020239D01*
X005203Y019710D01*
X005163Y019710D01*
X005163Y020239D01*
X005140Y020239D01*
X005054Y020226D01*
X004972Y020199D01*
X004895Y020160D01*
X004825Y020109D01*
X004764Y020048D01*
X004713Y019978D01*
X004673Y019900D01*
X004662Y019866D01*
X004615Y019978D01*
X004472Y020122D01*
X004285Y020199D01*
X004082Y020199D01*
X003894Y020122D01*
X003751Y019978D01*
X003683Y019815D01*
X003615Y019978D01*
X003472Y020122D01*
X003285Y020199D01*
X003082Y020199D01*
X002894Y020122D01*
X002751Y019978D01*
X002673Y019791D01*
X002673Y019588D01*
X002751Y019400D01*
X002894Y019257D01*
X002963Y019228D01*
X002963Y012780D01*
X002963Y012598D01*
X003963Y011598D01*
X004092Y011469D01*
X008766Y011469D01*
X008785Y011423D01*
X008917Y011291D01*
X009090Y011219D01*
X009277Y011219D01*
X009449Y011291D01*
X009582Y011423D01*
X009653Y011596D01*
X009653Y011783D01*
X009582Y011956D01*
X009449Y012088D01*
X009277Y012159D01*
X009090Y012159D01*
X008917Y012088D01*
X008785Y011956D01*
X008766Y011909D01*
X004274Y011909D01*
X003403Y012780D01*
X003403Y019228D01*
X003472Y019257D01*
X003615Y019400D01*
X003683Y019564D01*
X003751Y019400D01*
X003894Y019257D01*
X003963Y019228D01*
X003963Y013780D01*
X003963Y013598D01*
X004963Y012598D01*
X005092Y012469D01*
X008766Y012469D01*
X008785Y012423D01*
X008917Y012291D01*
X009090Y012219D01*
X009277Y012219D01*
X009449Y012291D01*
X009582Y012423D01*
X009653Y012596D01*
X009653Y012783D01*
X009582Y012956D01*
X009449Y013088D01*
X009277Y013159D01*
X009090Y013159D01*
X008917Y013088D01*
X008785Y012956D01*
X008766Y012909D01*
X005274Y012909D01*
X004403Y013780D01*
X004403Y019228D01*
X004472Y019257D01*
X004615Y019400D01*
X004662Y019513D01*
X004673Y019478D01*
X004713Y019401D01*
X004764Y019331D01*
X004825Y019270D01*
X004895Y019219D01*
X004972Y019180D01*
X005054Y019153D01*
X005140Y019139D01*
X005163Y019139D01*
X005163Y019669D01*
X005203Y019669D01*
X005203Y019139D01*
X005226Y019139D01*
X005312Y019153D01*
X005394Y019180D01*
X005471Y019219D01*
X005541Y019270D01*
X005603Y019331D01*
X005654Y019401D01*
X005693Y019478D01*
X005704Y019513D01*
X005751Y019400D01*
X005894Y019257D01*
X006082Y019179D01*
X006285Y019179D01*
X006472Y019257D01*
X006615Y019400D01*
X006673Y019540D01*
X006673Y019261D01*
X006755Y019179D01*
X007611Y019179D01*
X007693Y019261D01*
X007693Y019469D01*
X008592Y019469D01*
X009732Y018329D01*
X009713Y018283D01*
X009713Y018096D01*
X009785Y017923D01*
X009917Y017791D01*
X009963Y017772D01*
X009963Y017280D01*
X008963Y016280D01*
X008963Y016107D01*
X008917Y016088D01*
X008785Y015956D01*
X008713Y015783D01*
X008713Y015596D01*
X008785Y015423D01*
X008917Y015291D01*
X008770Y015458D02*
X004403Y015458D01*
X004403Y015617D02*
X008713Y015617D01*
X008713Y015775D02*
X004403Y015775D01*
X004403Y015934D02*
X008776Y015934D01*
X008928Y016092D02*
X004403Y016092D01*
X004403Y016251D02*
X008963Y016251D01*
X009092Y016409D02*
X004403Y016409D01*
X004403Y016568D02*
X009251Y016568D01*
X009409Y016727D02*
X004403Y016727D01*
X004403Y016885D02*
X009568Y016885D01*
X009726Y017044D02*
X004403Y017044D01*
X004403Y017202D02*
X009885Y017202D01*
X009963Y017361D02*
X004403Y017361D01*
X004403Y017519D02*
X009963Y017519D01*
X009963Y017678D02*
X004403Y017678D01*
X004403Y017836D02*
X009871Y017836D01*
X009755Y017995D02*
X004403Y017995D01*
X004403Y018153D02*
X009713Y018153D01*
X009725Y018312D02*
X004403Y018312D01*
X004403Y018471D02*
X009591Y018471D01*
X009432Y018629D02*
X004403Y018629D01*
X004403Y018788D02*
X009274Y018788D01*
X009115Y018946D02*
X004403Y018946D01*
X004403Y019105D02*
X008957Y019105D01*
X008798Y019263D02*
X007693Y019263D01*
X007693Y019422D02*
X008640Y019422D01*
X008683Y019689D02*
X007183Y019689D01*
X007693Y020056D02*
X009690Y020056D01*
X009673Y020214D02*
X005346Y020214D01*
X005203Y020214D02*
X005163Y020214D01*
X005020Y020214D02*
X001863Y020214D01*
X001863Y020056D02*
X002829Y020056D01*
X002717Y019897D02*
X001863Y019897D01*
X001863Y019739D02*
X002673Y019739D01*
X002676Y019580D02*
X001863Y019580D01*
X001863Y019422D02*
X002742Y019422D01*
X002888Y019263D02*
X001863Y019263D01*
X001863Y019105D02*
X002963Y019105D01*
X002963Y018946D02*
X001863Y018946D01*
X001863Y018788D02*
X002963Y018788D01*
X002963Y018629D02*
X001863Y018629D01*
X001863Y018471D02*
X002963Y018471D01*
X002963Y018312D02*
X001863Y018312D01*
X001863Y018153D02*
X002963Y018153D01*
X002963Y017995D02*
X001863Y017995D01*
X001863Y017836D02*
X002963Y017836D01*
X002963Y017678D02*
X001863Y017678D01*
X001863Y017519D02*
X002963Y017519D01*
X002963Y017361D02*
X001863Y017361D01*
X001863Y017202D02*
X002963Y017202D01*
X002963Y017044D02*
X001863Y017044D01*
X001863Y016885D02*
X002963Y016885D01*
X002963Y016727D02*
X001863Y016727D01*
X001863Y016568D02*
X002963Y016568D01*
X002963Y016409D02*
X001863Y016409D01*
X001863Y016251D02*
X002963Y016251D01*
X002963Y016092D02*
X001863Y016092D01*
X001863Y015934D02*
X002963Y015934D01*
X002693Y015617D02*
X002611Y015699D01*
X001863Y015699D01*
X002693Y015458D02*
X002963Y015458D01*
X002963Y015300D02*
X002693Y015300D01*
X002693Y015141D02*
X002963Y015141D01*
X002963Y014983D02*
X002693Y014983D01*
X002693Y014824D02*
X002963Y014824D01*
X002963Y014665D02*
X002366Y014665D01*
X002587Y014507D02*
X002963Y014507D01*
X002963Y014348D02*
X002669Y014348D01*
X002693Y014190D02*
X002963Y014190D01*
X002963Y014031D02*
X002670Y014031D01*
X002588Y013873D02*
X002963Y013873D01*
X002963Y013714D02*
X002369Y013714D01*
X002538Y013556D02*
X002963Y013556D01*
X002963Y013397D02*
X002649Y013397D01*
X002693Y013239D02*
X002963Y013239D01*
X002963Y013080D02*
X002690Y013080D01*
X002624Y012921D02*
X002963Y012921D01*
X002963Y012763D02*
X002478Y012763D01*
X002489Y012604D02*
X002963Y012604D01*
X003115Y012446D02*
X002629Y012446D01*
X002693Y012287D02*
X003274Y012287D01*
X003433Y012129D02*
X002693Y012129D01*
X002644Y011970D02*
X003591Y011970D01*
X003750Y011812D02*
X002527Y011812D01*
X001863Y011653D02*
X003908Y011653D01*
X004067Y011495D02*
X001863Y011495D01*
X001863Y011336D02*
X008872Y011336D01*
X008917Y011088D02*
X008785Y010956D01*
X008713Y010783D01*
X008713Y010596D01*
X008785Y010423D01*
X008917Y010291D01*
X009090Y010219D01*
X009277Y010219D01*
X009449Y010291D01*
X009582Y010423D01*
X009653Y010596D01*
X009653Y010783D01*
X009582Y010956D01*
X009449Y011088D01*
X009277Y011159D01*
X009090Y011159D01*
X008917Y011088D01*
X008848Y011019D02*
X001863Y011019D01*
X001863Y011178D02*
X013884Y011178D01*
X013725Y011336D02*
X012495Y011336D01*
X012518Y011019D02*
X014042Y011019D01*
X014201Y010860D02*
X012621Y010860D01*
X012653Y010702D02*
X014359Y010702D01*
X014518Y010543D02*
X012631Y010543D01*
X012543Y010385D02*
X014676Y010385D01*
X014835Y010226D02*
X012293Y010226D01*
X012277Y010159D02*
X012090Y010159D01*
X011917Y010088D01*
X011785Y009956D01*
X011713Y009783D01*
X011713Y009596D01*
X011785Y009423D01*
X011917Y009291D01*
X012090Y009219D01*
X012277Y009219D01*
X012449Y009291D01*
X012582Y009423D01*
X012653Y009596D01*
X012653Y009783D01*
X012582Y009956D01*
X012449Y010088D01*
X012277Y010159D01*
X012469Y010068D02*
X014994Y010068D01*
X015152Y009909D02*
X012601Y009909D01*
X012653Y009751D02*
X015311Y009751D01*
X015469Y009592D02*
X012652Y009592D01*
X012586Y009434D02*
X015628Y009434D01*
X015786Y009275D02*
X012411Y009275D01*
X012380Y009116D02*
X013912Y009116D01*
X013918Y009121D02*
X013854Y009074D01*
X013798Y009018D01*
X013751Y008954D01*
X013715Y008883D01*
X013691Y008808D01*
X013678Y008729D01*
X013678Y008689D01*
X013678Y008650D01*
X013691Y008571D01*
X013715Y008495D01*
X013751Y008425D01*
X013798Y008360D01*
X013854Y008304D01*
X013918Y008257D01*
X013989Y008221D01*
X014065Y008197D01*
X014143Y008184D01*
X014183Y008184D01*
X014183Y008689D01*
X014183Y008689D01*
X013678Y008689D01*
X014183Y008689D01*
X014183Y008689D01*
X014183Y008184D01*
X014223Y008184D01*
X014301Y008197D01*
X014377Y008221D01*
X014448Y008257D01*
X014512Y008304D01*
X014568Y008360D01*
X014615Y008425D01*
X014651Y008495D01*
X014676Y008571D01*
X014688Y008650D01*
X014688Y008689D01*
X014184Y008689D01*
X014184Y008689D01*
X014688Y008689D01*
X014688Y008729D01*
X014676Y008808D01*
X014651Y008883D01*
X014615Y008954D01*
X014568Y009018D01*
X014512Y009074D01*
X014448Y009121D01*
X014377Y009157D01*
X014301Y009182D01*
X014223Y009194D01*
X014183Y009194D01*
X014143Y009194D01*
X014065Y009182D01*
X013989Y009157D01*
X013918Y009121D01*
X013754Y008958D02*
X012579Y008958D01*
X012582Y008956D02*
X012449Y009088D01*
X012277Y009159D01*
X012090Y009159D01*
X011917Y009088D01*
X011785Y008956D01*
X011713Y008783D01*
X011713Y008596D01*
X011785Y008423D01*
X011917Y008291D01*
X012090Y008219D01*
X012277Y008219D01*
X012449Y008291D01*
X012582Y008423D01*
X012653Y008596D01*
X012653Y008783D01*
X012582Y008956D01*
X012646Y008799D02*
X013689Y008799D01*
X013680Y008641D02*
X012653Y008641D01*
X012606Y008482D02*
X013722Y008482D01*
X013834Y008324D02*
X012482Y008324D01*
X012449Y008088D02*
X012277Y008159D01*
X012090Y008159D01*
X011917Y008088D01*
X011785Y007956D01*
X011713Y007783D01*
X011713Y007596D01*
X011785Y007423D01*
X011917Y007291D01*
X012090Y007219D01*
X012277Y007219D01*
X012449Y007291D01*
X012582Y007423D01*
X012601Y007469D01*
X013718Y007469D01*
X013718Y007306D01*
X013800Y007224D01*
X014566Y007224D01*
X014648Y007306D01*
X014648Y008072D01*
X014566Y008154D01*
X013800Y008154D01*
X013718Y008072D01*
X013718Y007909D01*
X012601Y007909D01*
X012582Y007956D01*
X012449Y008088D01*
X012530Y008007D02*
X013718Y008007D01*
X014183Y008324D02*
X014183Y008324D01*
X014183Y008482D02*
X014183Y008482D01*
X014183Y008641D02*
X014183Y008641D01*
X014183Y008690D02*
X014183Y009194D01*
X014183Y008690D01*
X014183Y008690D01*
X014183Y008799D02*
X014183Y008799D01*
X014183Y008958D02*
X014183Y008958D01*
X014183Y009116D02*
X014183Y009116D01*
X014454Y009116D02*
X015945Y009116D01*
X016103Y008958D02*
X014612Y008958D01*
X014677Y008799D02*
X016262Y008799D01*
X016420Y008641D02*
X014687Y008641D01*
X014644Y008482D02*
X016579Y008482D01*
X016738Y008324D02*
X014532Y008324D01*
X014648Y008007D02*
X015836Y008007D01*
X015740Y007848D02*
X014648Y007848D01*
X014648Y007690D02*
X015713Y007690D01*
X015740Y007531D02*
X014648Y007531D01*
X014648Y007372D02*
X015055Y007372D01*
X015183Y007189D02*
X020683Y007189D01*
X020439Y006738D02*
X015043Y006738D01*
X014885Y006580D02*
X021188Y006580D01*
X021188Y006738D02*
X020927Y006738D01*
X021112Y006897D02*
X021188Y006897D01*
X021180Y007055D02*
X021188Y007055D01*
X021188Y006421D02*
X014726Y006421D01*
X014568Y006263D02*
X021188Y006263D01*
X021188Y006104D02*
X014409Y006104D01*
X014251Y005946D02*
X021188Y005946D01*
X021188Y005787D02*
X014092Y005787D01*
X013933Y005629D02*
X020184Y005629D01*
X020173Y005470D02*
X013775Y005470D01*
X013683Y005689D02*
X015183Y007189D01*
X014897Y007214D02*
X011403Y007214D01*
X011403Y007372D02*
X011835Y007372D01*
X011740Y007531D02*
X011403Y007531D01*
X011403Y007690D02*
X011713Y007690D01*
X011740Y007848D02*
X011403Y007848D01*
X011403Y008007D02*
X011836Y008007D01*
X011884Y008324D02*
X011403Y008324D01*
X011403Y008482D02*
X011760Y008482D01*
X011713Y008641D02*
X011403Y008641D01*
X011403Y008799D02*
X011720Y008799D01*
X011787Y008958D02*
X011403Y008958D01*
X011403Y009116D02*
X011986Y009116D01*
X011955Y009275D02*
X011403Y009275D01*
X011403Y009434D02*
X011780Y009434D01*
X011715Y009592D02*
X011403Y009592D01*
X011556Y009751D02*
X011713Y009751D01*
X011714Y009909D02*
X011766Y009909D01*
X011873Y010068D02*
X011897Y010068D01*
X012031Y010226D02*
X012073Y010226D01*
X011726Y010543D02*
X009631Y010543D01*
X009653Y010702D02*
X011713Y010702D01*
X011745Y010860D02*
X009621Y010860D01*
X009518Y011019D02*
X011848Y011019D01*
X011872Y011336D02*
X009495Y011336D01*
X009611Y011495D02*
X011755Y011495D01*
X011713Y011653D02*
X009653Y011653D01*
X009641Y011812D02*
X011725Y011812D01*
X011799Y011970D02*
X009567Y011970D01*
X009350Y012129D02*
X012016Y012129D01*
X011925Y012287D02*
X009441Y012287D01*
X009591Y012446D02*
X011775Y012446D01*
X011713Y012604D02*
X009653Y012604D01*
X009653Y012763D02*
X011713Y012763D01*
X011771Y012921D02*
X009596Y012921D01*
X009457Y013080D02*
X011909Y013080D01*
X012043Y013239D02*
X009323Y013239D01*
X009043Y013239D02*
X004945Y013239D01*
X004786Y013397D02*
X008811Y013397D01*
X008730Y013556D02*
X004628Y013556D01*
X004469Y013714D02*
X008713Y013714D01*
X008750Y013873D02*
X004403Y013873D01*
X004403Y014031D02*
X008860Y014031D01*
X009556Y013397D02*
X011811Y013397D01*
X011730Y013556D02*
X009636Y013556D01*
X009653Y013714D02*
X011713Y013714D01*
X011750Y013873D02*
X009616Y013873D01*
X009636Y014824D02*
X011691Y014824D01*
X011766Y014983D02*
X009555Y014983D01*
X009320Y015141D02*
X011947Y015141D01*
X011917Y015291D02*
X012090Y015219D01*
X012277Y015219D01*
X012449Y015291D01*
X012582Y015423D01*
X012653Y015596D01*
X012653Y015783D01*
X012582Y015956D01*
X012449Y016088D01*
X012277Y016159D01*
X012090Y016159D01*
X011917Y016088D01*
X011785Y015956D01*
X011713Y015783D01*
X011713Y015596D01*
X011785Y015423D01*
X011917Y015291D01*
X011908Y015300D02*
X009458Y015300D01*
X009596Y015458D02*
X011770Y015458D01*
X011713Y015617D02*
X009653Y015617D01*
X009653Y015775D02*
X011713Y015775D01*
X011776Y015934D02*
X009591Y015934D01*
X009438Y016092D02*
X011928Y016092D01*
X012438Y016092D02*
X015215Y016092D01*
X015213Y016096D02*
X015285Y015923D01*
X015417Y015791D01*
X015590Y015719D01*
X015777Y015719D01*
X015949Y015791D01*
X016082Y015923D01*
X016101Y015969D01*
X018274Y015969D01*
X018403Y016098D01*
X018903Y016598D01*
X018903Y016750D01*
X018908Y016752D01*
X019018Y016862D01*
X019128Y016752D01*
X019274Y016692D01*
X019432Y016692D01*
X019578Y016752D01*
X019690Y016864D01*
X019751Y017010D01*
X019751Y017168D01*
X019690Y017314D01*
X019578Y017426D01*
X019432Y017487D01*
X019381Y017487D01*
X019441Y017630D01*
X019441Y017788D01*
X019380Y017934D01*
X019268Y018046D01*
X019122Y018107D01*
X018964Y018107D01*
X018818Y018046D01*
X018706Y017934D01*
X018698Y017915D01*
X018690Y017934D01*
X018578Y018046D01*
X018432Y018107D01*
X018274Y018107D01*
X018128Y018046D01*
X018016Y017934D01*
X017956Y017788D01*
X017956Y017630D01*
X017999Y017527D01*
X017983Y017527D01*
X017949Y017527D01*
X017881Y017516D01*
X017815Y017495D01*
X017754Y017463D01*
X017698Y017423D01*
X017649Y017374D01*
X017609Y017319D01*
X017578Y017257D01*
X017556Y017192D01*
X017546Y017124D01*
X017546Y017089D01*
X017546Y017055D01*
X017556Y016987D01*
X017578Y016921D01*
X017609Y016860D01*
X017649Y016804D01*
X017698Y016756D01*
X017754Y016715D01*
X017815Y016684D01*
X017881Y016663D01*
X017949Y016652D01*
X017983Y016652D01*
X017983Y017089D01*
X017983Y017089D01*
X017546Y017089D01*
X017983Y017089D01*
X017983Y017089D01*
X017983Y016652D01*
X018018Y016652D01*
X018086Y016663D01*
X018151Y016684D01*
X018212Y016715D01*
X018268Y016756D01*
X018317Y016804D01*
X018354Y016856D01*
X018447Y016764D01*
X018092Y016409D01*
X016101Y016409D01*
X016082Y016456D01*
X015949Y016588D01*
X015777Y016659D01*
X015590Y016659D01*
X015417Y016588D01*
X015285Y016456D01*
X015213Y016283D01*
X015213Y016096D01*
X015213Y016251D02*
X009556Y016251D01*
X009714Y016409D02*
X015266Y016409D01*
X015397Y016568D02*
X009873Y016568D01*
X010031Y016727D02*
X017738Y016727D01*
X017596Y016885D02*
X010190Y016885D01*
X010349Y017044D02*
X017547Y017044D01*
X017560Y017202D02*
X010403Y017202D01*
X010403Y017361D02*
X017640Y017361D01*
X017902Y017519D02*
X010403Y017519D01*
X010403Y017678D02*
X017956Y017678D01*
X017983Y017527D02*
X017983Y017090D01*
X017983Y017090D01*
X017983Y017527D01*
X017983Y017519D02*
X017983Y017519D01*
X017983Y017361D02*
X017983Y017361D01*
X017983Y017202D02*
X017983Y017202D01*
X017983Y017044D02*
X017983Y017044D01*
X017983Y016885D02*
X017983Y016885D01*
X017983Y016727D02*
X017983Y016727D01*
X018228Y016727D02*
X018409Y016727D01*
X018251Y016568D02*
X015969Y016568D01*
X016101Y016409D02*
X018092Y016409D01*
X018183Y016189D02*
X015683Y016189D01*
X016086Y015934D02*
X021188Y015934D01*
X021188Y016092D02*
X018397Y016092D01*
X018556Y016251D02*
X021188Y016251D01*
X021188Y016409D02*
X018714Y016409D01*
X018873Y016568D02*
X021188Y016568D01*
X021188Y016727D02*
X019516Y016727D01*
X019699Y016885D02*
X021188Y016885D01*
X021188Y017044D02*
X019751Y017044D01*
X019737Y017202D02*
X021188Y017202D01*
X021188Y017361D02*
X019644Y017361D01*
X019395Y017519D02*
X021188Y017519D01*
X021188Y017678D02*
X019441Y017678D01*
X019421Y017836D02*
X021188Y017836D01*
X021188Y017995D02*
X019320Y017995D01*
X018767Y017995D02*
X018630Y017995D01*
X018077Y017995D02*
X013611Y017995D01*
X013582Y017923D02*
X013653Y018096D01*
X013653Y018283D01*
X013582Y018456D01*
X013449Y018588D01*
X013277Y018659D01*
X013090Y018659D01*
X012917Y018588D01*
X012785Y018456D01*
X012713Y018283D01*
X012713Y018096D01*
X012785Y017923D01*
X012917Y017791D01*
X013090Y017719D01*
X013277Y017719D01*
X013449Y017791D01*
X013582Y017923D01*
X013495Y017836D02*
X017976Y017836D01*
X017643Y018595D02*
X017386Y018488D01*
X017107Y018488D01*
X016849Y018595D01*
X016652Y018792D01*
X016545Y019050D01*
X016545Y019329D01*
X016652Y019586D01*
X016849Y019784D01*
X017107Y019890D01*
X017386Y019890D01*
X017643Y019784D01*
X017840Y019586D01*
X017947Y019329D01*
X017947Y019050D01*
X017840Y018792D01*
X017643Y018595D01*
X017677Y018629D02*
X019689Y018629D01*
X019723Y018595D02*
X019981Y018488D01*
X020260Y018488D01*
X020517Y018595D01*
X020714Y018792D01*
X020821Y019050D01*
X020821Y019329D01*
X020714Y019586D01*
X020517Y019784D01*
X020260Y019890D01*
X019981Y019890D01*
X019723Y019784D01*
X019526Y019586D01*
X019419Y019329D01*
X019419Y019050D01*
X019526Y018792D01*
X019723Y018595D01*
X019530Y018788D02*
X017836Y018788D01*
X017904Y018946D02*
X019462Y018946D01*
X019419Y019105D02*
X017947Y019105D01*
X017947Y019263D02*
X019419Y019263D01*
X019458Y019422D02*
X017909Y019422D01*
X017843Y019580D02*
X019523Y019580D01*
X019678Y019739D02*
X017688Y019739D01*
X016804Y019739D02*
X013422Y019739D01*
X013450Y019753D02*
X013515Y019800D01*
X013572Y019857D01*
X013619Y019922D01*
X013656Y019994D01*
X013681Y020070D01*
X013693Y020149D01*
X013693Y020189D01*
X013184Y020189D01*
X013184Y020189D01*
X013693Y020189D01*
X013693Y020214D02*
X021188Y020214D01*
X021188Y020056D02*
X013676Y020056D01*
X013601Y019897D02*
X021188Y019897D01*
X021188Y019739D02*
X020562Y019739D01*
X020717Y019580D02*
X021188Y019580D01*
X021188Y019422D02*
X020783Y019422D01*
X020821Y019263D02*
X021188Y019263D01*
X021188Y019105D02*
X020821Y019105D01*
X020778Y018946D02*
X021188Y018946D01*
X021188Y018788D02*
X020710Y018788D01*
X020551Y018629D02*
X021188Y018629D01*
X021188Y018471D02*
X013567Y018471D01*
X013641Y018312D02*
X021188Y018312D01*
X021188Y018153D02*
X013653Y018153D01*
X013350Y018629D02*
X016815Y018629D01*
X016656Y018788D02*
X009896Y018788D01*
X009737Y018946D02*
X016588Y018946D01*
X016545Y019105D02*
X009579Y019105D01*
X009420Y019263D02*
X016545Y019263D01*
X016584Y019422D02*
X009262Y019422D01*
X009103Y019580D02*
X016649Y019580D01*
X018683Y017089D02*
X018683Y016689D01*
X018183Y016189D01*
X018903Y016727D02*
X019190Y016727D01*
X021188Y015775D02*
X015912Y015775D01*
X015454Y015775D02*
X012653Y015775D01*
X012653Y015617D02*
X021188Y015617D01*
X021188Y015458D02*
X012596Y015458D01*
X012458Y015300D02*
X021188Y015300D01*
X021188Y015141D02*
X012420Y015141D01*
X012183Y015141D02*
X012183Y015141D01*
X012183Y015199D02*
X012183Y014690D01*
X012183Y014690D01*
X012183Y015199D01*
X012183Y014983D02*
X012183Y014983D01*
X012183Y014824D02*
X012183Y014824D01*
X012183Y014689D02*
X012683Y014689D01*
X012693Y014649D02*
X012681Y014570D01*
X012656Y014494D01*
X012619Y014422D01*
X012572Y014357D01*
X012515Y014300D01*
X012450Y014253D01*
X012379Y014217D01*
X012303Y014192D01*
X012223Y014179D01*
X012183Y014179D01*
X012183Y014689D01*
X012183Y014665D02*
X012183Y014665D01*
X012183Y014507D02*
X012183Y014507D01*
X012183Y014348D02*
X012183Y014348D01*
X012183Y014190D02*
X012183Y014190D01*
X012290Y014190D02*
X014178Y014190D01*
X014204Y014348D02*
X012563Y014348D01*
X012660Y014507D02*
X014290Y014507D01*
X014203Y014031D02*
X012506Y014031D01*
X012811Y013873D02*
X014289Y013873D01*
X014511Y013714D02*
X012969Y013714D01*
X013128Y013556D02*
X021188Y013556D01*
X021188Y013714D02*
X014855Y013714D01*
X014683Y013714D02*
X014683Y013714D01*
X014683Y013873D02*
X014683Y013873D01*
X014683Y014031D02*
X014683Y014031D01*
X015077Y013873D02*
X015218Y013873D01*
X015218Y013806D02*
X015300Y013724D01*
X016066Y013724D01*
X016148Y013806D01*
X016148Y014572D01*
X016066Y014654D01*
X015300Y014654D01*
X015218Y014572D01*
X015218Y013806D01*
X015218Y014031D02*
X015163Y014031D01*
X015188Y014190D02*
X015218Y014190D01*
X015218Y014348D02*
X015162Y014348D01*
X015218Y014507D02*
X015077Y014507D01*
X014852Y014665D02*
X021188Y014665D01*
X021188Y014507D02*
X016148Y014507D01*
X016148Y014348D02*
X021188Y014348D01*
X021188Y014190D02*
X016148Y014190D01*
X016148Y014031D02*
X021188Y014031D01*
X021188Y013873D02*
X016148Y013873D01*
X014555Y012129D02*
X021188Y012129D01*
X021188Y012287D02*
X014396Y012287D01*
X014238Y012446D02*
X021188Y012446D01*
X021188Y012604D02*
X014079Y012604D01*
X013921Y012763D02*
X021188Y012763D01*
X021188Y012921D02*
X013762Y012921D01*
X013603Y013080D02*
X021188Y013080D01*
X021188Y013239D02*
X013445Y013239D01*
X013286Y013397D02*
X021188Y013397D01*
X021188Y011970D02*
X014713Y011970D01*
X014872Y011812D02*
X021188Y011812D01*
X021188Y011653D02*
X015030Y011653D01*
X015189Y011495D02*
X021188Y011495D01*
X021188Y011336D02*
X015347Y011336D01*
X015506Y011178D02*
X021188Y011178D01*
X021188Y011019D02*
X015665Y011019D01*
X015823Y010860D02*
X021188Y010860D01*
X021188Y010702D02*
X015982Y010702D01*
X016140Y010543D02*
X020173Y010543D01*
X020683Y010189D02*
X016183Y010189D01*
X012683Y013689D01*
X012183Y013689D01*
X012323Y013239D02*
X012823Y013239D01*
X012664Y013397D02*
X012556Y013397D01*
X012457Y013080D02*
X012981Y013080D01*
X013140Y012921D02*
X012596Y012921D01*
X012183Y012689D02*
X013183Y012689D01*
X016683Y009189D01*
X020683Y009189D01*
X020683Y008189D02*
X017183Y008189D01*
X013683Y011689D01*
X012183Y011689D01*
X012350Y012129D02*
X013433Y012129D01*
X013591Y011970D02*
X012567Y011970D01*
X012441Y012287D02*
X013274Y012287D01*
X013115Y012446D02*
X012591Y012446D01*
X012183Y010689D02*
X011183Y009689D01*
X011183Y005689D01*
X009183Y003689D01*
X010183Y002689D01*
X010183Y002189D01*
X009683Y001689D01*
X005683Y001689D01*
X005183Y002189D01*
X002183Y002189D01*
X002539Y001823D02*
X005238Y001823D01*
X005396Y001665D02*
X001863Y001665D01*
X001863Y001506D02*
X005555Y001506D01*
X005701Y001982D02*
X009665Y001982D01*
X009823Y002141D02*
X005543Y002141D01*
X005384Y002299D02*
X008909Y002299D01*
X008917Y002291D02*
X009090Y002219D01*
X009277Y002219D01*
X009449Y002291D01*
X009582Y002423D01*
X009653Y002596D01*
X009653Y002783D01*
X009582Y002956D01*
X009449Y003088D01*
X009277Y003159D01*
X009090Y003159D01*
X008917Y003088D01*
X008785Y002956D01*
X008713Y002783D01*
X008713Y002596D01*
X008785Y002423D01*
X008917Y002291D01*
X008770Y002458D02*
X002624Y002458D01*
X002477Y002616D02*
X008713Y002616D01*
X008713Y002775D02*
X002546Y002775D01*
X002670Y002933D02*
X008776Y002933D01*
X008927Y003092D02*
X002725Y003092D01*
X002730Y003250D02*
X009015Y003250D01*
X008799Y003409D02*
X002689Y003409D01*
X002583Y003567D02*
X008725Y003567D01*
X008713Y003726D02*
X002397Y003726D01*
X002600Y003885D02*
X008755Y003885D01*
X008872Y004043D02*
X002675Y004043D01*
X002693Y004202D02*
X009384Y004202D01*
X009277Y004219D02*
X009449Y004291D01*
X009582Y004423D01*
X009653Y004596D01*
X009653Y004783D01*
X009582Y004956D01*
X009449Y005088D01*
X009277Y005159D01*
X009090Y005159D01*
X008917Y005088D01*
X008785Y004956D01*
X008713Y004783D01*
X008713Y004596D01*
X008785Y004423D01*
X008917Y004291D01*
X009090Y004219D01*
X009277Y004219D01*
X009519Y004360D02*
X009543Y004360D01*
X009621Y004519D02*
X009701Y004519D01*
X009653Y004677D02*
X009860Y004677D01*
X010019Y004836D02*
X009631Y004836D01*
X009543Y004994D02*
X010177Y004994D01*
X010336Y005153D02*
X009292Y005153D01*
X009277Y005219D02*
X009449Y005291D01*
X009582Y005423D01*
X009653Y005596D01*
X009653Y005783D01*
X009582Y005956D01*
X009449Y006088D01*
X009277Y006159D01*
X009090Y006159D01*
X008917Y006088D01*
X008785Y005956D01*
X008713Y005783D01*
X008713Y005596D01*
X008785Y005423D01*
X008917Y005291D01*
X009090Y005219D01*
X009277Y005219D01*
X009074Y005153D02*
X002693Y005153D01*
X002693Y005311D02*
X004896Y005311D01*
X004917Y005291D02*
X005090Y005219D01*
X005277Y005219D01*
X005449Y005291D01*
X005582Y005423D01*
X005653Y005596D01*
X005653Y005783D01*
X005582Y005956D01*
X005449Y006088D01*
X005277Y006159D01*
X005090Y006159D01*
X004917Y006088D01*
X004785Y005956D01*
X004713Y005783D01*
X004713Y005596D01*
X004785Y005423D01*
X004917Y005291D01*
X004765Y005470D02*
X002693Y005470D01*
X002682Y005629D02*
X004713Y005629D01*
X004715Y005787D02*
X001863Y005787D01*
X001863Y005946D02*
X004781Y005946D01*
X004957Y006104D02*
X001863Y006104D01*
X001863Y006263D02*
X004903Y006263D01*
X004916Y006253D02*
X004987Y006217D01*
X005064Y006192D01*
X005143Y006179D01*
X005183Y006179D01*
X005183Y006689D01*
X005183Y006689D01*
X004673Y006689D01*
X004673Y006649D01*
X004686Y006570D01*
X004711Y006494D01*
X004747Y006422D01*
X004794Y006357D01*
X004851Y006300D01*
X004916Y006253D01*
X004747Y006421D02*
X001863Y006421D01*
X001863Y006580D02*
X004684Y006580D01*
X004683Y006689D02*
X005183Y006689D01*
X005183Y006689D01*
X005683Y006689D01*
X005693Y006689D02*
X005693Y006729D01*
X005681Y006809D01*
X005656Y006885D01*
X005619Y006957D01*
X005572Y007021D01*
X005515Y007078D01*
X005450Y007125D01*
X005379Y007162D01*
X005303Y007187D01*
X005223Y007199D01*
X005183Y007199D01*
X005143Y007199D01*
X005064Y007187D01*
X004987Y007162D01*
X004916Y007125D01*
X004851Y007078D01*
X004794Y007021D01*
X004747Y006957D01*
X004711Y006885D01*
X004686Y006809D01*
X004673Y006729D01*
X004673Y006689D01*
X005183Y006689D01*
X005183Y006179D01*
X005223Y006179D01*
X005303Y006192D01*
X005379Y006217D01*
X005450Y006253D01*
X005515Y006300D01*
X005572Y006357D01*
X005619Y006422D01*
X005656Y006494D01*
X005681Y006570D01*
X005693Y006649D01*
X005693Y006689D01*
X005184Y006689D01*
X005184Y006689D01*
X005693Y006689D01*
X005692Y006738D02*
X008713Y006738D01*
X008713Y006783D02*
X008713Y006596D01*
X008785Y006423D01*
X008917Y006291D01*
X009090Y006219D01*
X009277Y006219D01*
X009449Y006291D01*
X009582Y006423D01*
X009653Y006596D01*
X009653Y006783D01*
X009582Y006956D01*
X009449Y007088D01*
X009277Y007159D01*
X009090Y007159D01*
X008917Y007088D01*
X008785Y006956D01*
X008713Y006783D01*
X008760Y006897D02*
X005650Y006897D01*
X005538Y007055D02*
X008885Y007055D01*
X008917Y007291D02*
X009090Y007219D01*
X009277Y007219D01*
X009449Y007291D01*
X009582Y007423D01*
X009653Y007596D01*
X009653Y007783D01*
X009582Y007956D01*
X009449Y008088D01*
X009277Y008159D01*
X009090Y008159D01*
X008917Y008088D01*
X008785Y007956D01*
X008713Y007783D01*
X008713Y007596D01*
X008785Y007423D01*
X008917Y007291D01*
X008835Y007372D02*
X005531Y007372D01*
X005582Y007423D02*
X005653Y007596D01*
X005653Y007783D01*
X005582Y007956D01*
X005449Y008088D01*
X005277Y008159D01*
X005090Y008159D01*
X004917Y008088D01*
X004785Y007956D01*
X004713Y007783D01*
X004713Y007596D01*
X004785Y007423D01*
X004917Y007291D01*
X005090Y007219D01*
X005277Y007219D01*
X005449Y007291D01*
X005582Y007423D01*
X005626Y007531D02*
X008740Y007531D01*
X008713Y007690D02*
X005653Y007690D01*
X005626Y007848D02*
X008740Y007848D01*
X008836Y008007D02*
X005530Y008007D01*
X004836Y008007D02*
X002659Y008007D01*
X002693Y008165D02*
X010963Y008165D01*
X010963Y008007D02*
X009530Y008007D01*
X009626Y007848D02*
X010963Y007848D01*
X010963Y007690D02*
X009653Y007690D01*
X009626Y007531D02*
X010963Y007531D01*
X010963Y007372D02*
X009531Y007372D01*
X009482Y007055D02*
X010963Y007055D01*
X010963Y006897D02*
X009606Y006897D01*
X009653Y006738D02*
X010963Y006738D01*
X010963Y006580D02*
X009646Y006580D01*
X009580Y006421D02*
X010963Y006421D01*
X010963Y006263D02*
X009381Y006263D01*
X009410Y006104D02*
X010963Y006104D01*
X010963Y005946D02*
X009586Y005946D01*
X009651Y005787D02*
X010963Y005787D01*
X010811Y005629D02*
X009653Y005629D01*
X009601Y005470D02*
X010653Y005470D01*
X010494Y005311D02*
X009470Y005311D01*
X008896Y005311D02*
X005470Y005311D01*
X005601Y005470D02*
X008765Y005470D01*
X008713Y005629D02*
X005653Y005629D01*
X005651Y005787D02*
X008715Y005787D01*
X008781Y005946D02*
X005586Y005946D01*
X005410Y006104D02*
X008957Y006104D01*
X008985Y006263D02*
X005464Y006263D01*
X005619Y006421D02*
X008786Y006421D01*
X008720Y006580D02*
X005682Y006580D01*
X005183Y006580D02*
X005183Y006580D01*
X005183Y006690D02*
X005183Y007199D01*
X005183Y006690D01*
X005183Y006690D01*
X005183Y006738D02*
X005183Y006738D01*
X005183Y006897D02*
X005183Y006897D01*
X005183Y007055D02*
X005183Y007055D01*
X004828Y007055D02*
X002680Y007055D01*
X002693Y007214D02*
X010963Y007214D01*
X011403Y007055D02*
X011828Y007055D01*
X011851Y007078D02*
X011794Y007021D01*
X011747Y006957D01*
X011711Y006885D01*
X011686Y006809D01*
X011673Y006729D01*
X011673Y006689D01*
X011673Y006649D01*
X011686Y006570D01*
X011711Y006494D01*
X011747Y006422D01*
X011794Y006357D01*
X011851Y006300D01*
X011916Y006253D01*
X011987Y006217D01*
X012064Y006192D01*
X012143Y006179D01*
X012183Y006179D01*
X012183Y006689D01*
X012183Y006689D01*
X011673Y006689D01*
X012183Y006689D01*
X012183Y006689D01*
X012683Y006689D01*
X012693Y006689D02*
X012693Y006729D01*
X012681Y006809D01*
X012656Y006885D01*
X012619Y006957D01*
X012572Y007021D01*
X012515Y007078D01*
X012450Y007125D01*
X012379Y007162D01*
X012303Y007187D01*
X012223Y007199D01*
X012183Y007199D01*
X012143Y007199D01*
X012064Y007187D01*
X011987Y007162D01*
X011916Y007125D01*
X011851Y007078D01*
X011717Y006897D02*
X011403Y006897D01*
X011403Y006738D02*
X011675Y006738D01*
X011684Y006580D02*
X011403Y006580D01*
X011403Y006421D02*
X011747Y006421D01*
X011903Y006263D02*
X011403Y006263D01*
X011403Y006104D02*
X011957Y006104D01*
X011781Y005946D02*
X011403Y005946D01*
X011403Y005787D02*
X011715Y005787D01*
X011713Y005629D02*
X011403Y005629D01*
X011275Y005470D02*
X011765Y005470D01*
X011896Y005311D02*
X011116Y005311D01*
X010958Y005153D02*
X012074Y005153D01*
X012292Y005153D02*
X013336Y005153D01*
X013494Y005311D02*
X012470Y005311D01*
X012183Y005689D02*
X013683Y005689D01*
X013628Y005946D02*
X012586Y005946D01*
X012410Y006104D02*
X013787Y006104D01*
X013945Y006263D02*
X012464Y006263D01*
X012450Y006253D02*
X012515Y006300D01*
X012572Y006357D01*
X012619Y006422D01*
X012656Y006494D01*
X012681Y006570D01*
X012693Y006649D01*
X012693Y006689D01*
X012184Y006689D01*
X012184Y006689D01*
X012693Y006689D01*
X012692Y006738D02*
X014421Y006738D01*
X014263Y006580D02*
X012682Y006580D01*
X012619Y006421D02*
X014104Y006421D01*
X014580Y006897D02*
X012650Y006897D01*
X012538Y007055D02*
X014738Y007055D01*
X015202Y006897D02*
X020254Y006897D01*
X021182Y005629D02*
X021188Y005629D01*
X020683Y005189D02*
X013683Y005189D01*
X013183Y004689D01*
X012183Y004689D01*
X012519Y004360D02*
X020202Y004360D01*
X020173Y004202D02*
X010007Y004202D01*
X010165Y004360D02*
X011848Y004360D01*
X011745Y004519D02*
X010324Y004519D01*
X010482Y004677D02*
X011713Y004677D01*
X011735Y004836D02*
X010641Y004836D01*
X010799Y004994D02*
X011824Y004994D01*
X012543Y004994D02*
X013177Y004994D01*
X013482Y004677D02*
X020529Y004677D01*
X020291Y004519D02*
X013324Y004519D01*
X013641Y004836D02*
X020173Y004836D01*
X020683Y004189D02*
X020183Y003689D01*
X012183Y003689D01*
X011872Y004043D02*
X009848Y004043D01*
X009689Y003885D02*
X011755Y003885D01*
X011713Y003726D02*
X009653Y003726D01*
X009641Y003567D02*
X011725Y003567D01*
X011799Y003409D02*
X009775Y003409D01*
X009933Y003250D02*
X012015Y003250D01*
X011927Y003092D02*
X010092Y003092D01*
X010250Y002933D02*
X011776Y002933D01*
X011713Y002775D02*
X010403Y002775D01*
X010403Y002616D02*
X011713Y002616D01*
X011770Y002458D02*
X010403Y002458D01*
X010403Y002299D02*
X011909Y002299D01*
X012183Y002689D02*
X012683Y002189D01*
X020683Y002189D01*
X020328Y001823D02*
X010128Y001823D01*
X009970Y001665D02*
X021188Y001665D01*
X021188Y001823D02*
X021039Y001823D01*
X021149Y001982D02*
X021188Y001982D01*
X021188Y001506D02*
X009811Y001506D01*
X010287Y001982D02*
X012579Y001982D01*
X012421Y002141D02*
X010403Y002141D01*
X009963Y002299D02*
X009458Y002299D01*
X009596Y002458D02*
X009963Y002458D01*
X009945Y002616D02*
X009653Y002616D01*
X009653Y002775D02*
X009787Y002775D01*
X009628Y002933D02*
X009591Y002933D01*
X009469Y003092D02*
X009439Y003092D01*
X008848Y004360D02*
X002664Y004360D01*
X002575Y004519D02*
X008745Y004519D01*
X008713Y004677D02*
X002338Y004677D01*
X002693Y004836D02*
X008735Y004836D01*
X008824Y004994D02*
X002693Y004994D01*
X002427Y006738D02*
X004675Y006738D01*
X004717Y006897D02*
X002612Y006897D01*
X002659Y007372D02*
X004835Y007372D01*
X004740Y007531D02*
X002563Y007531D01*
X002309Y007690D02*
X004713Y007690D01*
X004740Y007848D02*
X002563Y007848D01*
X002679Y008324D02*
X008827Y008324D01*
X008851Y008300D02*
X008916Y008253D01*
X008987Y008217D01*
X009064Y008192D01*
X009143Y008179D01*
X009183Y008179D01*
X009183Y008689D01*
X009183Y008689D01*
X008673Y008689D01*
X008673Y008649D01*
X008686Y008570D01*
X008711Y008494D01*
X008747Y008422D01*
X008794Y008357D01*
X008851Y008300D01*
X008716Y008482D02*
X002611Y008482D01*
X002426Y008641D02*
X008674Y008641D01*
X008673Y008689D02*
X009183Y008689D01*
X009183Y008689D01*
X009683Y008689D01*
X009693Y008689D02*
X009693Y008729D01*
X009681Y008809D01*
X009656Y008885D01*
X009619Y008957D01*
X009572Y009021D01*
X009515Y009078D01*
X009450Y009125D01*
X009379Y009162D01*
X009303Y009187D01*
X009223Y009199D01*
X009183Y009199D01*
X009143Y009199D01*
X009064Y009187D01*
X008987Y009162D01*
X008916Y009125D01*
X008851Y009078D01*
X008794Y009021D01*
X008747Y008957D01*
X008711Y008885D01*
X008686Y008809D01*
X008673Y008729D01*
X008673Y008689D01*
X008683Y008689D02*
X009183Y008689D01*
X009183Y008179D01*
X009223Y008179D01*
X009303Y008192D01*
X009379Y008217D01*
X009450Y008253D01*
X009515Y008300D01*
X009572Y008357D01*
X009619Y008422D01*
X009656Y008494D01*
X009681Y008570D01*
X009693Y008649D01*
X009693Y008689D01*
X009184Y008689D01*
X009184Y008689D01*
X009693Y008689D01*
X009692Y008641D02*
X010963Y008641D01*
X010963Y008799D02*
X009682Y008799D01*
X009618Y008958D02*
X010963Y008958D01*
X010963Y009116D02*
X009463Y009116D01*
X009411Y009275D02*
X010963Y009275D01*
X010963Y009434D02*
X009586Y009434D01*
X009582Y009423D02*
X009653Y009596D01*
X009653Y009783D01*
X009582Y009956D01*
X009449Y010088D01*
X009277Y010159D01*
X009090Y010159D01*
X008917Y010088D01*
X008785Y009956D01*
X008713Y009783D01*
X008713Y009596D01*
X008785Y009423D01*
X008917Y009291D01*
X009090Y009219D01*
X009277Y009219D01*
X009449Y009291D01*
X009582Y009423D01*
X009652Y009592D02*
X010963Y009592D01*
X010963Y009751D02*
X009653Y009751D01*
X009601Y009909D02*
X011092Y009909D01*
X011251Y010068D02*
X009469Y010068D01*
X009293Y010226D02*
X011409Y010226D01*
X011568Y010385D02*
X009543Y010385D01*
X009073Y010226D02*
X002693Y010226D01*
X002693Y010068D02*
X008897Y010068D01*
X008766Y009909D02*
X002693Y009909D01*
X002682Y009751D02*
X008713Y009751D01*
X008715Y009592D02*
X002502Y009592D01*
X002634Y009434D02*
X008780Y009434D01*
X008955Y009275D02*
X002693Y009275D01*
X002693Y009116D02*
X008904Y009116D01*
X008748Y008958D02*
X002639Y008958D01*
X002514Y008799D02*
X008684Y008799D01*
X009183Y008799D02*
X009183Y008799D01*
X009183Y008690D02*
X009183Y009199D01*
X009183Y008690D01*
X009183Y008690D01*
X009183Y008641D02*
X009183Y008641D01*
X009183Y008482D02*
X009183Y008482D01*
X009183Y008324D02*
X009183Y008324D01*
X009539Y008324D02*
X010963Y008324D01*
X010963Y008482D02*
X009650Y008482D01*
X009183Y008958D02*
X009183Y008958D01*
X009183Y009116D02*
X009183Y009116D01*
X008823Y010385D02*
X002693Y010385D01*
X002693Y010543D02*
X008735Y010543D01*
X008713Y010702D02*
X001863Y010702D01*
X001863Y010860D02*
X008745Y010860D01*
X009183Y011689D02*
X004183Y011689D01*
X003183Y012689D01*
X003183Y019689D01*
X003538Y020056D02*
X003829Y020056D01*
X003717Y019897D02*
X003649Y019897D01*
X003624Y019422D02*
X003742Y019422D01*
X003888Y019263D02*
X003478Y019263D01*
X003403Y019105D02*
X003963Y019105D01*
X003963Y018946D02*
X003403Y018946D01*
X003403Y018788D02*
X003963Y018788D01*
X003963Y018629D02*
X003403Y018629D01*
X003403Y018471D02*
X003963Y018471D01*
X003963Y018312D02*
X003403Y018312D01*
X003403Y018153D02*
X003963Y018153D01*
X003963Y017995D02*
X003403Y017995D01*
X003403Y017836D02*
X003963Y017836D01*
X003963Y017678D02*
X003403Y017678D01*
X003403Y017519D02*
X003963Y017519D01*
X003963Y017361D02*
X003403Y017361D01*
X003403Y017202D02*
X003963Y017202D01*
X003963Y017044D02*
X003403Y017044D01*
X003403Y016885D02*
X003963Y016885D01*
X003963Y016727D02*
X003403Y016727D01*
X003403Y016568D02*
X003963Y016568D01*
X003963Y016409D02*
X003403Y016409D01*
X003403Y016251D02*
X003963Y016251D01*
X003963Y016092D02*
X003403Y016092D01*
X003403Y015934D02*
X003963Y015934D01*
X003963Y015775D02*
X003403Y015775D01*
X003403Y015617D02*
X003963Y015617D01*
X003963Y015458D02*
X003403Y015458D01*
X003403Y015300D02*
X003963Y015300D01*
X003963Y015141D02*
X003403Y015141D01*
X003403Y014983D02*
X003963Y014983D01*
X003963Y014824D02*
X003403Y014824D01*
X003403Y014665D02*
X003963Y014665D01*
X003963Y014507D02*
X003403Y014507D01*
X003403Y014348D02*
X003963Y014348D01*
X003963Y014190D02*
X003403Y014190D01*
X003403Y014031D02*
X003963Y014031D01*
X003963Y013873D02*
X003403Y013873D01*
X003403Y013714D02*
X003963Y013714D01*
X004006Y013556D02*
X003403Y013556D01*
X003403Y013397D02*
X004164Y013397D01*
X004323Y013239D02*
X003403Y013239D01*
X003403Y013080D02*
X004481Y013080D01*
X004640Y012921D02*
X003403Y012921D01*
X003421Y012763D02*
X004798Y012763D01*
X004957Y012604D02*
X003579Y012604D01*
X003738Y012446D02*
X008775Y012446D01*
X008925Y012287D02*
X003896Y012287D01*
X004055Y012129D02*
X009016Y012129D01*
X008799Y011970D02*
X004213Y011970D01*
X005183Y012689D02*
X009183Y012689D01*
X008771Y012921D02*
X005262Y012921D01*
X005103Y013080D02*
X008909Y013080D01*
X009183Y015689D02*
X009183Y016189D01*
X010183Y017189D01*
X010183Y018189D01*
X008683Y019689D01*
X008786Y019897D02*
X009765Y019897D01*
X009944Y019739D02*
X008945Y019739D01*
X009707Y020373D02*
X001863Y020373D01*
X001863Y020532D02*
X009804Y020532D01*
X010085Y020690D02*
X001863Y020690D01*
X004183Y019689D02*
X004183Y013689D01*
X005183Y012689D01*
X010495Y017836D02*
X012871Y017836D01*
X012755Y017995D02*
X010611Y017995D01*
X010653Y018153D02*
X012713Y018153D01*
X012725Y018312D02*
X010641Y018312D01*
X010567Y018471D02*
X012800Y018471D01*
X013017Y018629D02*
X010350Y018629D01*
X010223Y019679D02*
X010303Y019692D01*
X010379Y019717D01*
X010450Y019753D01*
X010515Y019800D01*
X010572Y019857D01*
X010619Y019922D01*
X010656Y019994D01*
X010681Y020070D01*
X010693Y020149D01*
X010693Y020189D01*
X010184Y020189D01*
X010184Y020189D01*
X010693Y020189D01*
X010693Y020229D01*
X010681Y020309D01*
X010656Y020385D01*
X010619Y020457D01*
X010572Y020521D01*
X010515Y020578D01*
X010450Y020625D01*
X010379Y020662D01*
X010303Y020687D01*
X010254Y020694D01*
X013112Y020694D01*
X013064Y020687D01*
X012987Y020662D01*
X012916Y020625D01*
X012851Y020578D01*
X012794Y020521D01*
X012747Y020457D01*
X012711Y020385D01*
X012686Y020309D01*
X012673Y020229D01*
X012673Y020189D01*
X013183Y020189D01*
X013183Y019679D01*
X013223Y019679D01*
X013303Y019692D01*
X013379Y019717D01*
X013450Y019753D01*
X013183Y019739D02*
X013183Y019739D01*
X013183Y019897D02*
X013183Y019897D01*
X013183Y020056D02*
X013183Y020056D01*
X012944Y019739D02*
X010422Y019739D01*
X010223Y019679D02*
X010183Y019679D01*
X010183Y020189D01*
X010183Y020056D02*
X010183Y020056D01*
X010183Y019897D02*
X010183Y019897D01*
X010183Y019739D02*
X010183Y019739D01*
X010601Y019897D02*
X012765Y019897D01*
X012690Y020056D02*
X010676Y020056D01*
X010693Y020214D02*
X012673Y020214D01*
X012707Y020373D02*
X010660Y020373D01*
X010562Y020532D02*
X012804Y020532D01*
X013085Y020690D02*
X010281Y020690D01*
X013281Y020690D02*
X021188Y020690D01*
X021188Y020532D02*
X013562Y020532D01*
X013660Y020373D02*
X021188Y020373D01*
X021188Y014983D02*
X012600Y014983D01*
X012676Y014824D02*
X021188Y014824D01*
X015280Y015934D02*
X012591Y015934D01*
X006673Y019263D02*
X006478Y019263D01*
X006624Y019422D02*
X006673Y019422D01*
X006649Y019897D02*
X006673Y019897D01*
X006673Y020056D02*
X006538Y020056D01*
X005829Y020056D02*
X005594Y020056D01*
X005694Y019897D02*
X005717Y019897D01*
X005742Y019422D02*
X005664Y019422D01*
X005532Y019263D02*
X005888Y019263D01*
X005203Y019263D02*
X005163Y019263D01*
X005163Y019422D02*
X005203Y019422D01*
X005203Y019580D02*
X005163Y019580D01*
X005163Y019739D02*
X005203Y019739D01*
X005203Y019897D02*
X005163Y019897D01*
X005163Y020056D02*
X005203Y020056D01*
X004772Y020056D02*
X004538Y020056D01*
X004649Y019897D02*
X004672Y019897D01*
X004702Y019422D02*
X004624Y019422D01*
X004478Y019263D02*
X004834Y019263D01*
X011403Y008165D02*
X016896Y008165D01*
X017055Y008007D02*
X016530Y008007D01*
X016183Y007689D02*
X018683Y007689D01*
X020192Y004043D02*
X012494Y004043D01*
X012567Y003409D02*
X020178Y003409D01*
X020136Y003250D02*
X012352Y003250D01*
X012439Y003092D02*
X020142Y003092D01*
X020196Y002933D02*
X012591Y002933D01*
X012653Y002775D02*
X020320Y002775D01*
X020389Y002616D02*
X012653Y002616D01*
X012726Y002458D02*
X020242Y002458D01*
X014183Y007689D02*
X012183Y007689D01*
X012531Y007372D02*
X013718Y007372D01*
X012450Y006253D02*
X012379Y006217D01*
X012303Y006192D01*
X012223Y006179D01*
X012183Y006179D01*
X012183Y006689D01*
X012183Y006690D02*
X012183Y007199D01*
X012183Y006690D01*
X012183Y006690D01*
X012183Y006738D02*
X012183Y006738D01*
X012183Y006580D02*
X012183Y006580D01*
X012183Y006421D02*
X012183Y006421D01*
X012183Y006263D02*
X012183Y006263D01*
X012183Y006897D02*
X012183Y006897D01*
X012183Y007055D02*
X012183Y007055D01*
X005183Y006421D02*
X005183Y006421D01*
X005183Y006263D02*
X005183Y006263D01*
X001939Y006738D02*
X001863Y006738D01*
D19*
X012183Y016689D03*
M02*
