G75*
G70*
%OFA0B0*%
%FSLAX24Y24*%
%IPPOS*%
%LPD*%
%AMOC8*
5,1,8,0,0,1.08239X$1,22.5*
%
%ADD10C,0.0000*%
%ADD11R,0.0740X0.0740*%
%ADD12C,0.0740*%
%ADD13C,0.0660*%
%ADD14R,0.0880X0.0480*%
%ADD15R,0.0866X0.1417*%
%ADD16R,0.0591X0.0591*%
%ADD17R,0.0710X0.0630*%
%ADD18C,0.0515*%
%ADD19C,0.1122*%
%ADD20R,0.0630X0.0709*%
%ADD21R,0.0709X0.0630*%
%ADD22R,0.0650X0.0650*%
%ADD23C,0.0650*%
%ADD24C,0.0160*%
%ADD25R,0.0356X0.0356*%
D10*
X001683Y001189D02*
X001683Y020874D01*
X021368Y020874D01*
X021368Y001189D01*
X001683Y001189D01*
D11*
X002183Y005189D03*
X002183Y010189D03*
X002183Y015189D03*
X007183Y019689D03*
X020683Y010189D03*
X020683Y005189D03*
D12*
X020683Y004189D03*
X020683Y003189D03*
X020683Y002189D03*
X020683Y007189D03*
X020683Y008189D03*
X020683Y009189D03*
X006183Y019689D03*
X005183Y019689D03*
X004183Y019689D03*
X003183Y019689D03*
X002183Y014189D03*
X002183Y013189D03*
X002183Y012189D03*
X002183Y009189D03*
X002183Y008189D03*
X002183Y007189D03*
X002183Y004189D03*
X002183Y003189D03*
X002183Y002189D03*
D13*
X005183Y005689D03*
X005183Y006689D03*
X005183Y007689D03*
X009183Y007689D03*
X009183Y006689D03*
X009183Y005689D03*
X009183Y004689D03*
X009183Y003689D03*
X009183Y002689D03*
X012183Y002689D03*
X013183Y002689D03*
X012183Y003689D03*
X012183Y004689D03*
X012183Y005689D03*
X012183Y006689D03*
X012183Y007689D03*
X012183Y008689D03*
X012183Y009689D03*
X012183Y010689D03*
X012183Y011689D03*
X012183Y012689D03*
X012183Y013689D03*
X012183Y014689D03*
X012183Y015689D03*
X013183Y018189D03*
X013183Y020189D03*
X010183Y020189D03*
X010183Y018189D03*
X009183Y015689D03*
X009183Y014689D03*
X009183Y013689D03*
X009183Y012689D03*
X009183Y011689D03*
X009183Y010689D03*
X009183Y009689D03*
X009183Y008689D03*
X016183Y007689D03*
X018683Y007689D03*
X019683Y012189D03*
X015683Y016189D03*
D14*
X017463Y015599D03*
X017463Y014689D03*
X017463Y013779D03*
D15*
X019903Y014689D03*
D16*
X017183Y003378D03*
X017183Y002000D03*
X015683Y002000D03*
X015683Y003378D03*
X014183Y003378D03*
X014183Y002000D03*
D17*
X014183Y004629D03*
X014183Y005749D03*
X015683Y005749D03*
X015683Y004629D03*
X017183Y004629D03*
X017183Y005749D03*
X007683Y016629D03*
X007683Y017749D03*
X006183Y016749D03*
X006183Y015629D03*
D18*
X017983Y017089D03*
X018683Y017089D03*
X019353Y017089D03*
X019043Y017709D03*
X018353Y017709D03*
D19*
X017246Y019189D03*
X020120Y019189D03*
D20*
X018734Y012189D03*
X017632Y012189D03*
X016234Y012189D03*
X015132Y012189D03*
D21*
X013433Y015826D03*
X013433Y016928D03*
D22*
X015683Y014189D03*
X014183Y007689D03*
D23*
X014183Y008689D03*
X014683Y014189D03*
D24*
X015132Y013740D01*
X015132Y012189D01*
X016234Y012189D02*
X016234Y011638D01*
X017183Y010689D01*
X017183Y005749D01*
X017632Y006740D02*
X018183Y006189D01*
X018183Y002689D01*
X018683Y002189D01*
X020683Y002189D01*
X017183Y002000D02*
X015683Y002000D01*
X014183Y002000D01*
X013872Y002000D01*
X013183Y002689D01*
X014183Y003378D02*
X014183Y004629D01*
X014123Y005689D02*
X013683Y005689D01*
X013183Y005189D01*
X013183Y004689D01*
X012183Y003689D01*
X014123Y005689D02*
X014183Y005749D01*
X015683Y005749D02*
X015683Y007189D01*
X016183Y007689D01*
X017632Y006740D02*
X017632Y012189D01*
X017632Y013728D01*
X017683Y013779D01*
X018993Y013779D01*
X019903Y014689D01*
X019683Y015189D02*
X019353Y015519D01*
X019353Y017089D01*
X019043Y017709D02*
X019043Y017829D01*
X018183Y018689D01*
X017683Y018189D01*
X015183Y018189D01*
X014183Y017189D01*
X014183Y015189D01*
X013183Y014189D01*
X013183Y010689D01*
X012183Y009689D01*
X012183Y008689D02*
X013683Y010189D01*
X013683Y014189D01*
X015683Y016189D01*
X017183Y014689D02*
X016683Y014189D01*
X016683Y012638D01*
X016234Y012189D01*
X017463Y013779D02*
X017683Y013779D01*
X016683Y014189D02*
X015683Y014189D01*
X017463Y015599D02*
X017463Y016569D01*
X017983Y017089D01*
X014683Y018189D02*
X013683Y017189D01*
X013683Y017178D01*
X013433Y016928D01*
X012422Y016928D01*
X012183Y016689D01*
X012183Y017189D02*
X008683Y017189D01*
X008183Y017689D01*
X007743Y017689D01*
X007683Y017749D01*
X007563Y016749D02*
X007683Y016629D01*
X011243Y016629D01*
X012183Y015689D01*
X013297Y015689D01*
X013433Y015826D01*
X012183Y017189D02*
X013183Y018189D01*
X014683Y018189D02*
X014683Y019189D01*
X013683Y020189D01*
X013183Y020189D01*
X009183Y015689D02*
X006183Y015689D01*
X006183Y015629D01*
X004123Y015189D01*
X002183Y015189D01*
X002183Y014189D02*
X008683Y014189D01*
X009183Y014689D01*
X009183Y013689D02*
X003683Y013689D01*
X003183Y013189D01*
X002183Y013189D01*
X002183Y012189D02*
X003183Y012189D01*
X003683Y012689D01*
X009183Y012689D01*
X009183Y011689D02*
X003683Y011689D01*
X002183Y010189D01*
X002183Y009189D02*
X002683Y009189D01*
X004183Y010689D01*
X009183Y010689D01*
X009183Y009689D02*
X004183Y009689D01*
X002683Y008189D01*
X002183Y008189D01*
X002183Y007189D02*
X004683Y004689D01*
X006183Y004689D01*
X007183Y005689D01*
X009183Y005689D01*
X009183Y004689D02*
X008683Y004189D01*
X004683Y004189D01*
X003683Y005189D01*
X002183Y005189D01*
X002183Y004189D02*
X004183Y004189D01*
X005683Y002689D01*
X009183Y002689D01*
X006683Y005689D02*
X007683Y006689D01*
X009183Y006689D01*
X009183Y007689D02*
X005183Y007689D01*
X005183Y005689D02*
X006683Y005689D01*
X015683Y004629D02*
X015683Y003378D01*
X017183Y003378D02*
X017183Y003378D01*
X017183Y004629D01*
X018683Y007689D02*
X018683Y008189D01*
X020683Y010189D01*
X019683Y012189D02*
X018734Y012189D01*
X007563Y016749D02*
X006183Y016749D01*
X006183Y019689D01*
D25*
X012183Y016689D03*
M02*
