G75*
G70*
%OFA0B0*%
%FSLAX24Y24*%
%IPPOS*%
%LPD*%
%AMOC8*
5,1,8,0,0,1.08239X$1,22.5*
%
%ADD10C,0.0000*%
%ADD11C,0.0030*%
%ADD12C,0.0080*%
%ADD13C,0.0050*%
%ADD14C,0.0040*%
%ADD15R,0.0128X0.0167*%
%ADD16R,0.0138X0.0138*%
D10*
X001683Y001189D02*
X001683Y020874D01*
X021368Y020874D01*
X021368Y001189D01*
X001683Y001189D01*
D11*
X002948Y002003D02*
X002996Y001954D01*
X003093Y001954D01*
X003142Y002003D01*
X003142Y002051D01*
X003093Y002099D01*
X003045Y002099D01*
X003093Y002099D02*
X003142Y002148D01*
X003142Y002196D01*
X003093Y002245D01*
X002996Y002245D01*
X002948Y002196D01*
X003243Y002003D02*
X003291Y002003D01*
X003291Y001954D01*
X003243Y001954D01*
X003243Y002003D01*
X003390Y002003D02*
X003438Y001954D01*
X003535Y001954D01*
X003584Y002003D01*
X003584Y002051D01*
X003535Y002099D01*
X003487Y002099D01*
X003535Y002099D02*
X003584Y002148D01*
X003584Y002196D01*
X003535Y002245D01*
X003438Y002245D01*
X003390Y002196D01*
X003685Y002245D02*
X003685Y002051D01*
X003781Y001954D01*
X003878Y002051D01*
X003878Y002245D01*
X003683Y002954D02*
X003537Y002954D01*
X003537Y003245D01*
X003683Y003245D01*
X003731Y003196D01*
X003731Y003003D01*
X003683Y002954D01*
X003436Y002954D02*
X003436Y003245D01*
X003243Y003245D02*
X003436Y002954D01*
X003243Y002954D02*
X003243Y003245D01*
X003142Y003196D02*
X003093Y003245D01*
X002996Y003245D01*
X002948Y003196D01*
X002948Y003003D01*
X002996Y002954D01*
X003093Y002954D01*
X003142Y003003D01*
X003142Y003099D01*
X003045Y003099D01*
X003093Y003954D02*
X002948Y003954D01*
X002948Y004245D01*
X003093Y004245D01*
X003142Y004196D01*
X003142Y004148D01*
X003093Y004099D01*
X002948Y004099D01*
X003093Y004099D02*
X003142Y004051D01*
X003142Y004003D01*
X003093Y003954D01*
X003243Y004003D02*
X003291Y003954D01*
X003388Y003954D01*
X003436Y004003D01*
X003436Y004099D01*
X003388Y004148D01*
X003340Y004148D01*
X003243Y004099D01*
X003243Y004245D01*
X003436Y004245D01*
X003388Y004954D02*
X003388Y005245D01*
X003243Y005099D01*
X003436Y005099D01*
X003142Y005099D02*
X002948Y005099D01*
X002948Y005148D02*
X003045Y005245D01*
X003142Y005148D01*
X003142Y004954D01*
X002948Y004954D02*
X002948Y005148D01*
X002948Y006954D02*
X003093Y006954D01*
X003142Y007003D01*
X003142Y007051D01*
X003093Y007099D01*
X002948Y007099D01*
X002948Y006954D02*
X002948Y007245D01*
X003093Y007245D01*
X003142Y007196D01*
X003142Y007148D01*
X003093Y007099D01*
X003243Y007099D02*
X003436Y007099D01*
X003388Y006954D02*
X003388Y007245D01*
X003243Y007099D01*
X003291Y007954D02*
X003243Y008003D01*
X003291Y007954D02*
X003388Y007954D01*
X003436Y008003D01*
X003436Y008051D01*
X003388Y008099D01*
X003340Y008099D01*
X003388Y008099D02*
X003436Y008148D01*
X003436Y008196D01*
X003388Y008245D01*
X003291Y008245D01*
X003243Y008196D01*
X003142Y008196D02*
X003142Y008148D01*
X003093Y008099D01*
X002948Y008099D01*
X002948Y007954D02*
X003093Y007954D01*
X003142Y008003D01*
X003142Y008051D01*
X003093Y008099D01*
X003142Y008196D02*
X003093Y008245D01*
X002948Y008245D01*
X002948Y007954D01*
X002948Y008954D02*
X003093Y008954D01*
X003142Y009003D01*
X003142Y009051D01*
X003093Y009099D01*
X002948Y009099D01*
X002948Y008954D02*
X002948Y009245D01*
X003093Y009245D01*
X003142Y009196D01*
X003142Y009148D01*
X003093Y009099D01*
X003243Y009196D02*
X003291Y009245D01*
X003388Y009245D01*
X003436Y009196D01*
X003436Y009148D01*
X003243Y008954D01*
X003436Y008954D01*
X003436Y009954D02*
X003243Y009954D01*
X003340Y009954D02*
X003340Y010245D01*
X003243Y010148D01*
X003142Y010148D02*
X003093Y010099D01*
X002948Y010099D01*
X002948Y009954D02*
X002948Y010245D01*
X003093Y010245D01*
X003142Y010196D01*
X003142Y010148D01*
X003093Y010099D02*
X003142Y010051D01*
X003142Y010003D01*
X003093Y009954D01*
X002948Y009954D01*
X002948Y011954D02*
X003093Y011954D01*
X003142Y012003D01*
X003142Y012051D01*
X003093Y012099D01*
X002948Y012099D01*
X002948Y011954D02*
X002948Y012245D01*
X003093Y012245D01*
X003142Y012196D01*
X003142Y012148D01*
X003093Y012099D01*
X003243Y012003D02*
X003243Y012196D01*
X003291Y012245D01*
X003388Y012245D01*
X003436Y012196D01*
X003243Y012003D01*
X003291Y011954D01*
X003388Y011954D01*
X003436Y012003D01*
X003436Y012196D01*
X003436Y012954D02*
X003243Y012954D01*
X003340Y012954D02*
X003340Y013245D01*
X003243Y013148D01*
X003142Y013148D02*
X003142Y012954D01*
X003142Y013099D02*
X002948Y013099D01*
X002948Y013148D02*
X003045Y013245D01*
X003142Y013148D01*
X002948Y013148D02*
X002948Y012954D01*
X002948Y013954D02*
X002948Y014148D01*
X003045Y014245D01*
X003142Y014148D01*
X003142Y013954D01*
X003243Y014003D02*
X003291Y013954D01*
X003388Y013954D01*
X003436Y014003D01*
X003436Y014196D01*
X003243Y014003D01*
X003243Y014196D01*
X003291Y014245D01*
X003388Y014245D01*
X003436Y014196D01*
X003142Y014099D02*
X002948Y014099D01*
X002948Y014954D02*
X002948Y015245D01*
X003045Y015148D01*
X003142Y015245D01*
X003142Y014954D01*
X003243Y015003D02*
X003291Y014954D01*
X003388Y014954D01*
X003436Y015003D01*
X003537Y014954D02*
X003731Y014954D01*
X003832Y014954D02*
X003832Y015245D01*
X003977Y015245D01*
X004026Y015196D01*
X004026Y015099D01*
X003977Y015051D01*
X003832Y015051D01*
X003929Y015051D02*
X004026Y014954D01*
X003537Y014954D02*
X003537Y015245D01*
X003436Y015196D02*
X003388Y015245D01*
X003291Y015245D01*
X003243Y015196D01*
X003243Y015003D01*
X006157Y018664D02*
X006157Y018955D01*
X006302Y018955D01*
X006350Y018906D01*
X006350Y018809D01*
X006302Y018761D01*
X006157Y018761D01*
X006451Y018664D02*
X006548Y018664D01*
X006500Y018664D02*
X006500Y018955D01*
X006548Y018955D02*
X006451Y018955D01*
X006648Y018906D02*
X006648Y018713D01*
X006696Y018664D01*
X006793Y018664D01*
X006841Y018713D01*
X006942Y018761D02*
X007136Y018955D01*
X007237Y018955D02*
X007334Y018955D01*
X007285Y018955D02*
X007285Y018664D01*
X007237Y018664D02*
X007334Y018664D01*
X007530Y018664D02*
X007530Y018955D01*
X007433Y018955D02*
X007627Y018955D01*
X007136Y018664D02*
X006991Y018809D01*
X006942Y018664D02*
X006942Y018955D01*
X006841Y018906D02*
X006793Y018955D01*
X006696Y018955D01*
X006648Y018906D01*
X007045Y015995D02*
X007045Y015704D01*
X006948Y015704D02*
X007142Y015704D01*
X007243Y015704D02*
X007291Y015704D01*
X007291Y015753D01*
X007243Y015753D01*
X007243Y015704D01*
X007390Y015704D02*
X007390Y015995D01*
X007487Y015898D01*
X007584Y015995D01*
X007584Y015704D01*
X007685Y015753D02*
X007685Y015946D01*
X007733Y015995D01*
X007830Y015995D01*
X007878Y015946D01*
X007979Y015995D02*
X007979Y015704D01*
X008173Y015704D01*
X008274Y015704D02*
X008274Y015995D01*
X008419Y015995D01*
X008468Y015946D01*
X008468Y015849D01*
X008419Y015801D01*
X008274Y015801D01*
X008371Y015801D02*
X008468Y015704D01*
X007878Y015753D02*
X007830Y015704D01*
X007733Y015704D01*
X007685Y015753D01*
X007045Y015995D02*
X006948Y015898D01*
X006996Y014995D02*
X006948Y014946D01*
X006996Y014995D02*
X007093Y014995D01*
X007142Y014946D01*
X007142Y014898D01*
X006948Y014704D01*
X007142Y014704D01*
X007243Y014704D02*
X007291Y014704D01*
X007291Y014753D01*
X007243Y014753D01*
X007243Y014704D01*
X007390Y014704D02*
X007390Y014995D01*
X007535Y014995D01*
X007584Y014946D01*
X007584Y014849D01*
X007535Y014801D01*
X007390Y014801D01*
X007487Y014801D02*
X007584Y014704D01*
X007685Y014704D02*
X007685Y014898D01*
X007781Y014995D01*
X007878Y014898D01*
X007878Y014704D01*
X007979Y014753D02*
X008173Y014946D01*
X008173Y014753D01*
X008125Y014704D01*
X008028Y014704D01*
X007979Y014753D01*
X007979Y014946D01*
X008028Y014995D01*
X008125Y014995D01*
X008173Y014946D01*
X007878Y014849D02*
X007685Y014849D01*
X007781Y013995D02*
X007878Y013898D01*
X007878Y013704D01*
X007979Y013704D02*
X008173Y013704D01*
X008076Y013704D02*
X008076Y013995D01*
X007979Y013898D01*
X007878Y013849D02*
X007685Y013849D01*
X007685Y013898D02*
X007781Y013995D01*
X007685Y013898D02*
X007685Y013704D01*
X007584Y013704D02*
X007487Y013801D01*
X007535Y013801D02*
X007390Y013801D01*
X007390Y013704D02*
X007390Y013995D01*
X007535Y013995D01*
X007584Y013946D01*
X007584Y013849D01*
X007535Y013801D01*
X007291Y013753D02*
X007291Y013704D01*
X007243Y013704D01*
X007243Y013753D01*
X007291Y013753D01*
X007142Y013753D02*
X007093Y013704D01*
X006996Y013704D01*
X006948Y013753D01*
X007045Y013849D02*
X007093Y013849D01*
X007142Y013801D01*
X007142Y013753D01*
X007093Y013849D02*
X007142Y013898D01*
X007142Y013946D01*
X007093Y013995D01*
X006996Y013995D01*
X006948Y013946D01*
X007093Y012995D02*
X006948Y012849D01*
X007142Y012849D01*
X007243Y012753D02*
X007291Y012753D01*
X007291Y012704D01*
X007243Y012704D01*
X007243Y012753D01*
X007390Y012801D02*
X007535Y012801D01*
X007584Y012849D01*
X007584Y012946D01*
X007535Y012995D01*
X007390Y012995D01*
X007390Y012704D01*
X007487Y012801D02*
X007584Y012704D01*
X007685Y012704D02*
X007685Y012995D01*
X007830Y012995D01*
X007878Y012946D01*
X007878Y012898D01*
X007830Y012849D01*
X007685Y012849D01*
X007685Y012704D02*
X007830Y012704D01*
X007878Y012753D01*
X007878Y012801D01*
X007830Y012849D01*
X007979Y012753D02*
X007979Y012946D01*
X008028Y012995D01*
X008125Y012995D01*
X008173Y012946D01*
X007979Y012753D01*
X008028Y012704D01*
X008125Y012704D01*
X008173Y012753D01*
X008173Y012946D01*
X008076Y011995D02*
X007979Y011898D01*
X007878Y011898D02*
X007830Y011849D01*
X007685Y011849D01*
X007584Y011849D02*
X007584Y011946D01*
X007535Y011995D01*
X007390Y011995D01*
X007390Y011704D01*
X007390Y011801D02*
X007535Y011801D01*
X007584Y011849D01*
X007487Y011801D02*
X007584Y011704D01*
X007685Y011704D02*
X007685Y011995D01*
X007830Y011995D01*
X007878Y011946D01*
X007878Y011898D01*
X007830Y011849D02*
X007878Y011801D01*
X007878Y011753D01*
X007830Y011704D01*
X007685Y011704D01*
X007979Y011704D02*
X008173Y011704D01*
X008076Y011704D02*
X008076Y011995D01*
X007291Y011753D02*
X007291Y011704D01*
X007243Y011704D01*
X007243Y011753D01*
X007291Y011753D01*
X007142Y011753D02*
X007093Y011704D01*
X006996Y011704D01*
X006948Y011753D01*
X006948Y011849D02*
X007045Y011898D01*
X007093Y011898D01*
X007142Y011849D01*
X007142Y011753D01*
X006948Y011849D02*
X006948Y011995D01*
X007142Y011995D01*
X007093Y012704D02*
X007093Y012995D01*
X007142Y010995D02*
X007045Y010946D01*
X006948Y010849D01*
X007093Y010849D01*
X007142Y010801D01*
X007142Y010753D01*
X007093Y010704D01*
X006996Y010704D01*
X006948Y010753D01*
X006948Y010849D01*
X007243Y010753D02*
X007243Y010704D01*
X007291Y010704D01*
X007291Y010753D01*
X007243Y010753D01*
X007390Y010801D02*
X007535Y010801D01*
X007584Y010849D01*
X007584Y010946D01*
X007535Y010995D01*
X007390Y010995D01*
X007390Y010704D01*
X007487Y010801D02*
X007584Y010704D01*
X007685Y010704D02*
X007830Y010704D01*
X007878Y010753D01*
X007878Y010801D01*
X007830Y010849D01*
X007685Y010849D01*
X007685Y010704D02*
X007685Y010995D01*
X007830Y010995D01*
X007878Y010946D01*
X007878Y010898D01*
X007830Y010849D01*
X007979Y010946D02*
X008028Y010995D01*
X008125Y010995D01*
X008173Y010946D01*
X008173Y010898D01*
X007979Y010704D01*
X008173Y010704D01*
X008125Y009995D02*
X008028Y009995D01*
X007979Y009946D01*
X007878Y009946D02*
X007878Y009898D01*
X007830Y009849D01*
X007685Y009849D01*
X007584Y009849D02*
X007535Y009801D01*
X007390Y009801D01*
X007390Y009704D02*
X007390Y009995D01*
X007535Y009995D01*
X007584Y009946D01*
X007584Y009849D01*
X007487Y009801D02*
X007584Y009704D01*
X007685Y009704D02*
X007685Y009995D01*
X007830Y009995D01*
X007878Y009946D01*
X007830Y009849D02*
X007878Y009801D01*
X007878Y009753D01*
X007830Y009704D01*
X007685Y009704D01*
X007979Y009753D02*
X008028Y009704D01*
X008125Y009704D01*
X008173Y009753D01*
X008173Y009801D01*
X008125Y009849D01*
X008076Y009849D01*
X008125Y009849D02*
X008173Y009898D01*
X008173Y009946D01*
X008125Y009995D01*
X007291Y009753D02*
X007291Y009704D01*
X007243Y009704D01*
X007243Y009753D01*
X007291Y009753D01*
X007142Y009946D02*
X006948Y009753D01*
X006948Y009704D01*
X006948Y009995D02*
X007142Y009995D01*
X007142Y009946D01*
X007093Y008995D02*
X007142Y008946D01*
X007142Y008898D01*
X007093Y008849D01*
X006996Y008849D01*
X006948Y008898D01*
X006948Y008946D01*
X006996Y008995D01*
X007093Y008995D01*
X007093Y008849D02*
X007142Y008801D01*
X007142Y008753D01*
X007093Y008704D01*
X006996Y008704D01*
X006948Y008753D01*
X006948Y008801D01*
X006996Y008849D01*
X007243Y008753D02*
X007291Y008753D01*
X007291Y008704D01*
X007243Y008704D01*
X007243Y008753D01*
X007390Y008801D02*
X007390Y008995D01*
X007584Y008995D02*
X007584Y008801D01*
X007487Y008704D01*
X007390Y008801D01*
X007685Y008753D02*
X007733Y008704D01*
X007830Y008704D01*
X007878Y008753D01*
X007878Y008801D01*
X007830Y008849D01*
X007733Y008849D01*
X007685Y008898D01*
X007685Y008946D01*
X007733Y008995D01*
X007830Y008995D01*
X007878Y008946D01*
X007979Y008946D02*
X007979Y008898D01*
X008028Y008849D01*
X008125Y008849D01*
X008173Y008801D01*
X008173Y008753D01*
X008125Y008704D01*
X008028Y008704D01*
X007979Y008753D01*
X007979Y008946D02*
X008028Y008995D01*
X008125Y008995D01*
X008173Y008946D01*
X008125Y007995D02*
X008028Y007995D01*
X007979Y007946D01*
X007878Y007898D02*
X007878Y007704D01*
X007979Y007704D02*
X008173Y007898D01*
X008173Y007946D01*
X008125Y007995D01*
X007878Y007898D02*
X007781Y007995D01*
X007685Y007898D01*
X007685Y007704D01*
X007584Y007704D02*
X007487Y007801D01*
X007535Y007801D02*
X007390Y007801D01*
X007390Y007704D02*
X007390Y007995D01*
X007535Y007995D01*
X007584Y007946D01*
X007584Y007849D01*
X007535Y007801D01*
X007685Y007849D02*
X007878Y007849D01*
X007979Y007704D02*
X008173Y007704D01*
X008076Y006995D02*
X007979Y006898D01*
X007979Y006704D01*
X007878Y006704D02*
X007781Y006801D01*
X007830Y006801D02*
X007685Y006801D01*
X007685Y006704D02*
X007685Y006995D01*
X007830Y006995D01*
X007878Y006946D01*
X007878Y006849D01*
X007830Y006801D01*
X007979Y006849D02*
X008173Y006849D01*
X008173Y006898D02*
X008173Y006704D01*
X008274Y006753D02*
X008322Y006704D01*
X008419Y006704D01*
X008468Y006753D01*
X008468Y006801D01*
X008419Y006849D01*
X008371Y006849D01*
X008419Y006849D02*
X008468Y006898D01*
X008468Y006946D01*
X008419Y006995D01*
X008322Y006995D01*
X008274Y006946D01*
X008173Y006898D02*
X008076Y006995D01*
X007586Y006753D02*
X007586Y006704D01*
X007537Y006704D01*
X007537Y006753D01*
X007586Y006753D01*
X007436Y006753D02*
X007388Y006704D01*
X007291Y006704D01*
X007243Y006753D01*
X007436Y006946D01*
X007436Y006753D01*
X007436Y006946D02*
X007388Y006995D01*
X007291Y006995D01*
X007243Y006946D01*
X007243Y006753D01*
X007142Y006704D02*
X006948Y006704D01*
X007045Y006704D02*
X007045Y006995D01*
X006948Y006898D01*
X006543Y006925D02*
X006253Y006925D01*
X006253Y007026D02*
X006253Y007219D01*
X006301Y007219D01*
X006495Y007026D01*
X006543Y007026D01*
X006543Y007219D01*
X006398Y006925D02*
X006398Y006731D01*
X006543Y006731D02*
X006253Y006731D01*
X006253Y006630D02*
X006543Y006630D01*
X006543Y006436D02*
X006253Y006436D01*
X006350Y006533D01*
X006253Y006630D01*
X006301Y006335D02*
X006253Y006287D01*
X006253Y006190D01*
X006301Y006142D01*
X006350Y006142D01*
X006398Y006190D01*
X006398Y006287D01*
X006446Y006335D01*
X006495Y006335D01*
X006543Y006287D01*
X006543Y006190D01*
X006495Y006142D01*
X006446Y006142D01*
X006398Y006190D01*
X006398Y006287D02*
X006350Y006335D01*
X006301Y006335D01*
X006948Y005898D02*
X007045Y005995D01*
X007045Y005704D01*
X006948Y005704D02*
X007142Y005704D01*
X007243Y005704D02*
X007436Y005704D01*
X007340Y005704D02*
X007340Y005995D01*
X007243Y005898D01*
X007537Y005753D02*
X007537Y005704D01*
X007586Y005704D01*
X007586Y005753D01*
X007537Y005753D01*
X007685Y005801D02*
X007830Y005801D01*
X007878Y005849D01*
X007878Y005946D01*
X007830Y005995D01*
X007685Y005995D01*
X007685Y005704D01*
X007781Y005801D02*
X007878Y005704D01*
X007979Y005704D02*
X008125Y005704D01*
X008173Y005753D01*
X008173Y005801D01*
X008125Y005849D01*
X007979Y005849D01*
X007979Y005704D02*
X007979Y005995D01*
X008125Y005995D01*
X008173Y005946D01*
X008173Y005898D01*
X008125Y005849D01*
X008274Y005849D02*
X008419Y005995D01*
X008419Y005704D01*
X008468Y005849D02*
X008274Y005849D01*
X008419Y004995D02*
X008274Y004849D01*
X008468Y004849D01*
X008419Y004704D02*
X008419Y004995D01*
X008173Y004898D02*
X008173Y004704D01*
X008173Y004849D02*
X007979Y004849D01*
X007979Y004898D02*
X008076Y004995D01*
X008173Y004898D01*
X007979Y004898D02*
X007979Y004704D01*
X007878Y004704D02*
X007781Y004801D01*
X007830Y004801D02*
X007685Y004801D01*
X007685Y004704D02*
X007685Y004995D01*
X007830Y004995D01*
X007878Y004946D01*
X007878Y004849D01*
X007830Y004801D01*
X007586Y004753D02*
X007586Y004704D01*
X007537Y004704D01*
X007537Y004753D01*
X007586Y004753D01*
X007436Y004704D02*
X007243Y004704D01*
X007436Y004898D01*
X007436Y004946D01*
X007388Y004995D01*
X007291Y004995D01*
X007243Y004946D01*
X007045Y004995D02*
X007045Y004704D01*
X006948Y004704D02*
X007142Y004704D01*
X006948Y004898D02*
X007045Y004995D01*
X007045Y003995D02*
X007045Y003704D01*
X006948Y003704D02*
X007142Y003704D01*
X007243Y003753D02*
X007291Y003704D01*
X007388Y003704D01*
X007436Y003753D01*
X007436Y003801D01*
X007388Y003849D01*
X007340Y003849D01*
X007388Y003849D02*
X007436Y003898D01*
X007436Y003946D01*
X007388Y003995D01*
X007291Y003995D01*
X007243Y003946D01*
X007045Y003995D02*
X006948Y003898D01*
X007537Y003753D02*
X007586Y003753D01*
X007586Y003704D01*
X007537Y003704D01*
X007537Y003753D01*
X007685Y003801D02*
X007685Y003995D01*
X007878Y003995D02*
X007878Y003801D01*
X007781Y003704D01*
X007685Y003801D01*
X007979Y003704D02*
X007979Y003995D01*
X008125Y003995D01*
X008173Y003946D01*
X008173Y003753D01*
X008125Y003704D01*
X007979Y003704D01*
X008274Y003704D02*
X008419Y003704D01*
X008468Y003753D01*
X008468Y003946D01*
X008419Y003995D01*
X008274Y003995D01*
X008274Y003704D01*
X008274Y002995D02*
X008274Y002849D01*
X008371Y002898D01*
X008419Y002898D01*
X008468Y002849D01*
X008468Y002753D01*
X008419Y002704D01*
X008322Y002704D01*
X008274Y002753D01*
X008173Y002753D02*
X008125Y002704D01*
X007979Y002704D01*
X007979Y002995D01*
X008125Y002995D01*
X008173Y002946D01*
X008173Y002898D01*
X008125Y002849D01*
X007979Y002849D01*
X007878Y002849D02*
X007830Y002801D01*
X007685Y002801D01*
X007781Y002801D02*
X007878Y002704D01*
X007878Y002849D02*
X007878Y002946D01*
X007830Y002995D01*
X007685Y002995D01*
X007685Y002704D01*
X007586Y002704D02*
X007586Y002753D01*
X007537Y002753D01*
X007537Y002704D01*
X007586Y002704D01*
X007388Y002704D02*
X007388Y002995D01*
X007243Y002849D01*
X007436Y002849D01*
X007142Y002704D02*
X006948Y002704D01*
X007045Y002704D02*
X007045Y002995D01*
X006948Y002898D01*
X008125Y002849D02*
X008173Y002801D01*
X008173Y002753D01*
X008274Y002995D02*
X008468Y002995D01*
X009948Y002898D02*
X010045Y002995D01*
X010045Y002704D01*
X009948Y002704D02*
X010142Y002704D01*
X010243Y002753D02*
X010291Y002704D01*
X010388Y002704D01*
X010436Y002753D01*
X010436Y002849D01*
X010388Y002898D01*
X010340Y002898D01*
X010243Y002849D01*
X010243Y002995D01*
X010436Y002995D01*
X010685Y002995D02*
X010685Y002801D01*
X010781Y002704D01*
X010878Y002801D01*
X010878Y002995D01*
X010979Y002995D02*
X011125Y002995D01*
X011173Y002946D01*
X011173Y002898D01*
X011125Y002849D01*
X010979Y002849D01*
X010979Y002704D02*
X011125Y002704D01*
X011173Y002753D01*
X011173Y002801D01*
X011125Y002849D01*
X011274Y002753D02*
X011322Y002704D01*
X011419Y002704D01*
X011468Y002753D01*
X011468Y002995D01*
X011569Y002946D02*
X011617Y002995D01*
X011714Y002995D01*
X011762Y002946D01*
X011714Y002849D02*
X011762Y002801D01*
X011762Y002753D01*
X011714Y002704D01*
X011617Y002704D01*
X011569Y002753D01*
X011617Y002849D02*
X011714Y002849D01*
X011617Y002849D02*
X011569Y002898D01*
X011569Y002946D01*
X011274Y002995D02*
X011274Y002753D01*
X010979Y002704D02*
X010979Y002995D01*
X010586Y002753D02*
X010586Y002704D01*
X010537Y002704D01*
X010537Y002753D01*
X010586Y002753D01*
X010586Y003704D02*
X010537Y003704D01*
X010537Y003753D01*
X010586Y003753D01*
X010586Y003704D01*
X010685Y003704D02*
X010685Y003995D01*
X010830Y003995D01*
X010878Y003946D01*
X010878Y003849D01*
X010830Y003801D01*
X010685Y003801D01*
X010781Y003801D02*
X010878Y003704D01*
X010979Y003704D02*
X010979Y003995D01*
X011125Y003995D01*
X011173Y003946D01*
X011173Y003898D01*
X011125Y003849D01*
X010979Y003849D01*
X010979Y003704D02*
X011125Y003704D01*
X011173Y003753D01*
X011173Y003801D01*
X011125Y003849D01*
X011274Y003753D02*
X011274Y003704D01*
X011274Y003753D02*
X011468Y003946D01*
X011468Y003995D01*
X011274Y003995D01*
X011322Y004704D02*
X011274Y004753D01*
X011274Y004801D01*
X011322Y004849D01*
X011419Y004849D01*
X011468Y004801D01*
X011468Y004753D01*
X011419Y004704D01*
X011322Y004704D01*
X011322Y004849D02*
X011274Y004898D01*
X011274Y004946D01*
X011322Y004995D01*
X011419Y004995D01*
X011468Y004946D01*
X011468Y004898D01*
X011419Y004849D01*
X011173Y004801D02*
X011173Y004753D01*
X011125Y004704D01*
X010979Y004704D01*
X010979Y004995D01*
X011125Y004995D01*
X011173Y004946D01*
X011173Y004898D01*
X011125Y004849D01*
X010979Y004849D01*
X010878Y004849D02*
X010830Y004801D01*
X010685Y004801D01*
X010781Y004801D02*
X010878Y004704D01*
X010878Y004849D02*
X010878Y004946D01*
X010830Y004995D01*
X010685Y004995D01*
X010685Y004704D01*
X010586Y004704D02*
X010537Y004704D01*
X010537Y004753D01*
X010586Y004753D01*
X010586Y004704D01*
X010436Y004946D02*
X010243Y004753D01*
X010243Y004704D01*
X010142Y004704D02*
X009948Y004704D01*
X010045Y004704D02*
X010045Y004995D01*
X009948Y004898D01*
X010243Y004995D02*
X010436Y004995D01*
X010436Y004946D01*
X011125Y004849D02*
X011173Y004801D01*
X010436Y003995D02*
X010340Y003946D01*
X010243Y003849D01*
X010388Y003849D01*
X010436Y003801D01*
X010436Y003753D01*
X010388Y003704D01*
X010291Y003704D01*
X010243Y003753D01*
X010243Y003849D01*
X010142Y003704D02*
X009948Y003704D01*
X010045Y003704D02*
X010045Y003995D01*
X009948Y003898D01*
X009948Y005704D02*
X010142Y005704D01*
X010045Y005704D02*
X010045Y005995D01*
X009948Y005898D01*
X010243Y005898D02*
X010243Y005946D01*
X010291Y005995D01*
X010388Y005995D01*
X010436Y005946D01*
X010436Y005898D01*
X010388Y005849D01*
X010291Y005849D01*
X010243Y005898D01*
X010291Y005849D02*
X010243Y005801D01*
X010243Y005753D01*
X010291Y005704D01*
X010388Y005704D01*
X010436Y005753D01*
X010436Y005801D01*
X010388Y005849D01*
X010537Y005753D02*
X010537Y005704D01*
X010586Y005704D01*
X010586Y005753D01*
X010537Y005753D01*
X010685Y005801D02*
X010830Y005801D01*
X010878Y005849D01*
X010878Y005946D01*
X010830Y005995D01*
X010685Y005995D01*
X010685Y005704D01*
X010781Y005801D02*
X010878Y005704D01*
X010979Y005704D02*
X011125Y005704D01*
X011173Y005753D01*
X011173Y005801D01*
X011125Y005849D01*
X010979Y005849D01*
X010979Y005704D02*
X010979Y005995D01*
X011125Y005995D01*
X011173Y005946D01*
X011173Y005898D01*
X011125Y005849D01*
X011274Y005898D02*
X011322Y005849D01*
X011468Y005849D01*
X011468Y005753D02*
X011468Y005946D01*
X011419Y005995D01*
X011322Y005995D01*
X011274Y005946D01*
X011274Y005898D01*
X011274Y005753D02*
X011322Y005704D01*
X011419Y005704D01*
X011468Y005753D01*
X011419Y006704D02*
X011322Y006704D01*
X011274Y006753D01*
X011173Y006753D02*
X011125Y006704D01*
X011028Y006704D01*
X010979Y006753D01*
X011028Y006849D02*
X011125Y006849D01*
X011173Y006801D01*
X011173Y006753D01*
X011028Y006849D02*
X010979Y006898D01*
X010979Y006946D01*
X011028Y006995D01*
X011125Y006995D01*
X011173Y006946D01*
X011274Y006946D02*
X011274Y006898D01*
X011322Y006849D01*
X011419Y006849D01*
X011468Y006801D01*
X011468Y006753D01*
X011419Y006704D01*
X011468Y006946D02*
X011419Y006995D01*
X011322Y006995D01*
X011274Y006946D01*
X010878Y006995D02*
X010878Y006801D01*
X010781Y006704D01*
X010685Y006801D01*
X010685Y006995D01*
X010436Y006946D02*
X010436Y006753D01*
X010388Y006704D01*
X010291Y006704D01*
X010243Y006753D01*
X010291Y006849D02*
X010243Y006898D01*
X010243Y006946D01*
X010291Y006995D01*
X010388Y006995D01*
X010436Y006946D01*
X010436Y006849D02*
X010291Y006849D01*
X010142Y006704D02*
X009948Y006704D01*
X010045Y006704D02*
X010045Y006995D01*
X009948Y006898D01*
X010537Y006753D02*
X010586Y006753D01*
X010586Y006704D01*
X010537Y006704D01*
X010537Y006753D01*
X010537Y007704D02*
X010586Y007704D01*
X010586Y007753D01*
X010537Y007753D01*
X010537Y007704D01*
X010436Y007753D02*
X010436Y007946D01*
X010243Y007753D01*
X010291Y007704D01*
X010388Y007704D01*
X010436Y007753D01*
X010436Y007946D02*
X010388Y007995D01*
X010291Y007995D01*
X010243Y007946D01*
X010243Y007753D01*
X010142Y007704D02*
X009948Y007704D01*
X010142Y007898D01*
X010142Y007946D01*
X010093Y007995D01*
X009996Y007995D01*
X009948Y007946D01*
X010685Y007995D02*
X010685Y007801D01*
X010781Y007704D01*
X010878Y007801D01*
X010878Y007995D01*
X010979Y007946D02*
X010979Y007753D01*
X011028Y007704D01*
X011125Y007704D01*
X011173Y007753D01*
X011274Y007704D02*
X011274Y007898D01*
X011371Y007995D01*
X011468Y007898D01*
X011468Y007704D01*
X011569Y007704D02*
X011569Y007995D01*
X011714Y007995D01*
X011762Y007946D01*
X011762Y007849D01*
X011714Y007801D01*
X011569Y007801D01*
X011468Y007849D02*
X011274Y007849D01*
X011173Y007946D02*
X011125Y007995D01*
X011028Y007995D01*
X010979Y007946D01*
X010979Y008704D02*
X011125Y008704D01*
X011173Y008753D01*
X011173Y008801D01*
X011125Y008849D01*
X010979Y008849D01*
X010878Y008849D02*
X010878Y008946D01*
X010830Y008995D01*
X010685Y008995D01*
X010685Y008704D01*
X010685Y008801D02*
X010830Y008801D01*
X010878Y008849D01*
X010781Y008801D02*
X010878Y008704D01*
X010979Y008704D02*
X010979Y008995D01*
X011125Y008995D01*
X011173Y008946D01*
X011173Y008898D01*
X011125Y008849D01*
X011274Y008898D02*
X011371Y008995D01*
X011371Y008704D01*
X011274Y008704D02*
X011468Y008704D01*
X011569Y008753D02*
X011762Y008946D01*
X011762Y008753D01*
X011714Y008704D01*
X011617Y008704D01*
X011569Y008753D01*
X011569Y008946D01*
X011617Y008995D01*
X011714Y008995D01*
X011762Y008946D01*
X011762Y009704D02*
X011569Y009704D01*
X011665Y009704D02*
X011665Y009995D01*
X011569Y009898D01*
X011468Y009704D02*
X011274Y009704D01*
X011371Y009704D02*
X011371Y009995D01*
X011274Y009898D01*
X011173Y009898D02*
X011125Y009849D01*
X010979Y009849D01*
X010878Y009849D02*
X010830Y009801D01*
X010685Y009801D01*
X010781Y009801D02*
X010878Y009704D01*
X010979Y009704D02*
X010979Y009995D01*
X011125Y009995D01*
X011173Y009946D01*
X011173Y009898D01*
X011125Y009849D02*
X011173Y009801D01*
X011173Y009753D01*
X011125Y009704D01*
X010979Y009704D01*
X010878Y009849D02*
X010878Y009946D01*
X010830Y009995D01*
X010685Y009995D01*
X010685Y009704D01*
X010586Y009704D02*
X010537Y009704D01*
X010537Y009753D01*
X010586Y009753D01*
X010586Y009704D01*
X010436Y009704D02*
X010243Y009704D01*
X010436Y009898D01*
X010436Y009946D01*
X010388Y009995D01*
X010291Y009995D01*
X010243Y009946D01*
X010142Y009946D02*
X010093Y009995D01*
X009996Y009995D01*
X009948Y009946D01*
X010142Y009946D02*
X010142Y009898D01*
X009948Y009704D01*
X010142Y009704D01*
X010093Y008995D02*
X009996Y008995D01*
X009948Y008946D01*
X010093Y008995D02*
X010142Y008946D01*
X010142Y008898D01*
X009948Y008704D01*
X010142Y008704D01*
X010243Y008704D02*
X010436Y008704D01*
X010340Y008704D02*
X010340Y008995D01*
X010243Y008898D01*
X010537Y008753D02*
X010586Y008753D01*
X010586Y008704D01*
X010537Y008704D01*
X010537Y008753D01*
X010586Y010704D02*
X010537Y010704D01*
X010537Y010753D01*
X010586Y010753D01*
X010586Y010704D01*
X010685Y010801D02*
X010781Y010704D01*
X010878Y010801D01*
X010878Y010995D01*
X010979Y010995D02*
X010979Y010753D01*
X011028Y010704D01*
X011125Y010704D01*
X011173Y010753D01*
X011173Y010995D01*
X010685Y010995D02*
X010685Y010801D01*
X010436Y010801D02*
X010436Y010753D01*
X010388Y010704D01*
X010291Y010704D01*
X010243Y010753D01*
X010142Y010704D02*
X009948Y010704D01*
X010142Y010898D01*
X010142Y010946D01*
X010093Y010995D01*
X009996Y010995D01*
X009948Y010946D01*
X010243Y010946D02*
X010291Y010995D01*
X010388Y010995D01*
X010436Y010946D01*
X010436Y010898D01*
X010388Y010849D01*
X010436Y010801D01*
X010388Y010849D02*
X010340Y010849D01*
X010388Y011704D02*
X010388Y011995D01*
X010243Y011849D01*
X010436Y011849D01*
X010537Y011753D02*
X010586Y011753D01*
X010586Y011704D01*
X010537Y011704D01*
X010537Y011753D01*
X010685Y011801D02*
X010830Y011801D01*
X010878Y011849D01*
X010878Y011946D01*
X010830Y011995D01*
X010685Y011995D01*
X010685Y011704D01*
X010781Y011801D02*
X010878Y011704D01*
X010979Y011704D02*
X010979Y011995D01*
X011125Y011995D01*
X011173Y011946D01*
X011173Y011898D01*
X011125Y011849D01*
X010979Y011849D01*
X010979Y011704D02*
X011125Y011704D01*
X011173Y011753D01*
X011173Y011801D01*
X011125Y011849D01*
X011274Y011898D02*
X011371Y011995D01*
X011371Y011704D01*
X011274Y011704D02*
X011468Y011704D01*
X011569Y011753D02*
X011617Y011704D01*
X011714Y011704D01*
X011762Y011753D01*
X011762Y011801D01*
X011714Y011849D01*
X011665Y011849D01*
X011714Y011849D02*
X011762Y011898D01*
X011762Y011946D01*
X011714Y011995D01*
X011617Y011995D01*
X011569Y011946D01*
X011468Y012704D02*
X011274Y012704D01*
X011371Y012704D02*
X011371Y012995D01*
X011274Y012898D01*
X011173Y012898D02*
X011125Y012849D01*
X010979Y012849D01*
X010878Y012849D02*
X010830Y012801D01*
X010685Y012801D01*
X010781Y012801D02*
X010878Y012704D01*
X010979Y012704D02*
X010979Y012995D01*
X011125Y012995D01*
X011173Y012946D01*
X011173Y012898D01*
X011125Y012849D02*
X011173Y012801D01*
X011173Y012753D01*
X011125Y012704D01*
X010979Y012704D01*
X010878Y012849D02*
X010878Y012946D01*
X010830Y012995D01*
X010685Y012995D01*
X010685Y012704D01*
X010586Y012704D02*
X010537Y012704D01*
X010537Y012753D01*
X010586Y012753D01*
X010586Y012704D01*
X010436Y012753D02*
X010436Y012849D01*
X010388Y012898D01*
X010340Y012898D01*
X010243Y012849D01*
X010243Y012995D01*
X010436Y012995D01*
X010436Y012753D02*
X010388Y012704D01*
X010291Y012704D01*
X010243Y012753D01*
X010142Y012704D02*
X009948Y012704D01*
X010142Y012898D01*
X010142Y012946D01*
X010093Y012995D01*
X009996Y012995D01*
X009948Y012946D01*
X009948Y013704D02*
X010142Y013898D01*
X010142Y013946D01*
X010093Y013995D01*
X009996Y013995D01*
X009948Y013946D01*
X009948Y013704D02*
X010142Y013704D01*
X010243Y013753D02*
X010291Y013704D01*
X010388Y013704D01*
X010436Y013753D01*
X010436Y013801D01*
X010388Y013849D01*
X010243Y013849D01*
X010243Y013753D01*
X010243Y013849D02*
X010340Y013946D01*
X010436Y013995D01*
X010685Y013995D02*
X010830Y013995D01*
X010878Y013946D01*
X010878Y013849D01*
X010830Y013801D01*
X010685Y013801D01*
X010781Y013801D02*
X010878Y013704D01*
X010979Y013704D02*
X011125Y013704D01*
X011173Y013753D01*
X011173Y013801D01*
X011125Y013849D01*
X010979Y013849D01*
X010979Y013704D02*
X010979Y013995D01*
X011125Y013995D01*
X011173Y013946D01*
X011173Y013898D01*
X011125Y013849D01*
X011274Y013898D02*
X011371Y013995D01*
X011371Y013704D01*
X011274Y013704D02*
X011468Y013704D01*
X011569Y013753D02*
X011617Y013704D01*
X011714Y013704D01*
X011762Y013753D01*
X011762Y013849D01*
X011714Y013898D01*
X011665Y013898D01*
X011569Y013849D01*
X011569Y013995D01*
X011762Y013995D01*
X011419Y014704D02*
X011322Y014704D01*
X011274Y014753D01*
X011322Y014849D02*
X011419Y014849D01*
X011468Y014801D01*
X011468Y014753D01*
X011419Y014704D01*
X011322Y014849D02*
X011274Y014898D01*
X011274Y014946D01*
X011322Y014995D01*
X011419Y014995D01*
X011468Y014946D01*
X011419Y015204D02*
X011274Y015204D01*
X011274Y015495D01*
X011419Y015495D01*
X011468Y015446D01*
X011468Y015253D01*
X011419Y015204D01*
X011173Y015301D02*
X011173Y015495D01*
X010979Y015495D02*
X010979Y015301D01*
X011076Y015204D01*
X011173Y015301D01*
X010878Y015349D02*
X010685Y015349D01*
X010685Y015398D02*
X010781Y015495D01*
X010878Y015398D01*
X010878Y015204D01*
X010685Y015204D02*
X010685Y015398D01*
X010586Y015253D02*
X010586Y015204D01*
X010537Y015204D01*
X010537Y015253D01*
X010586Y015253D01*
X010436Y015253D02*
X010388Y015204D01*
X010291Y015204D01*
X010243Y015253D01*
X010243Y015301D01*
X010291Y015349D01*
X010388Y015349D01*
X010436Y015301D01*
X010436Y015253D01*
X010388Y015349D02*
X010436Y015398D01*
X010436Y015446D01*
X010388Y015495D01*
X010291Y015495D01*
X010243Y015446D01*
X010243Y015398D01*
X010291Y015349D01*
X010142Y015398D02*
X010142Y015446D01*
X010093Y015495D01*
X009996Y015495D01*
X009948Y015446D01*
X010142Y015398D02*
X009948Y015204D01*
X010142Y015204D01*
X010093Y014995D02*
X009996Y014995D01*
X009948Y014946D01*
X010093Y014995D02*
X010142Y014946D01*
X010142Y014898D01*
X009948Y014704D01*
X010142Y014704D01*
X010243Y014704D02*
X010243Y014753D01*
X010436Y014946D01*
X010436Y014995D01*
X010243Y014995D01*
X010537Y014753D02*
X010586Y014753D01*
X010586Y014704D01*
X010537Y014704D01*
X010537Y014753D01*
X010685Y014704D02*
X010685Y014898D01*
X010781Y014995D01*
X010878Y014898D01*
X010878Y014704D01*
X010979Y014801D02*
X010979Y014995D01*
X010878Y014849D02*
X010685Y014849D01*
X010979Y014801D02*
X011076Y014704D01*
X011173Y014801D01*
X011173Y014995D01*
X010685Y013995D02*
X010685Y013704D01*
X010586Y013704D02*
X010537Y013704D01*
X010537Y013753D01*
X010586Y013753D01*
X010586Y013704D01*
X011569Y012849D02*
X011762Y012849D01*
X011714Y012704D02*
X011714Y012995D01*
X011569Y012849D01*
X010142Y011946D02*
X010093Y011995D01*
X009996Y011995D01*
X009948Y011946D01*
X010142Y011946D02*
X010142Y011898D01*
X009948Y011704D01*
X010142Y011704D01*
X007093Y007995D02*
X006996Y007995D01*
X006948Y007946D01*
X006948Y007898D01*
X006996Y007849D01*
X007142Y007849D01*
X007142Y007753D02*
X007142Y007946D01*
X007093Y007995D01*
X007142Y007753D02*
X007093Y007704D01*
X006996Y007704D01*
X006948Y007753D01*
X007243Y007753D02*
X007291Y007753D01*
X007291Y007704D01*
X007243Y007704D01*
X007243Y007753D01*
X014396Y015304D02*
X014493Y015304D01*
X014542Y015353D01*
X014643Y015353D02*
X014691Y015304D01*
X014788Y015304D01*
X014836Y015353D01*
X014836Y015449D01*
X014788Y015498D01*
X014740Y015498D01*
X014643Y015449D01*
X014643Y015595D01*
X014836Y015595D01*
X014542Y015546D02*
X014493Y015595D01*
X014396Y015595D01*
X014348Y015546D01*
X014348Y015353D01*
X014396Y015304D01*
X018178Y015260D02*
X018226Y015308D01*
X018275Y015308D01*
X018323Y015260D01*
X018371Y015308D01*
X018420Y015308D01*
X018468Y015260D01*
X018468Y015163D01*
X018420Y015115D01*
X018420Y015016D02*
X018468Y015016D01*
X018468Y014968D01*
X018420Y014968D01*
X018420Y015016D01*
X018420Y014866D02*
X018468Y014818D01*
X018468Y014721D01*
X018420Y014673D01*
X018323Y014770D02*
X018323Y014818D01*
X018371Y014866D01*
X018420Y014866D01*
X018323Y014818D02*
X018275Y014866D01*
X018226Y014866D01*
X018178Y014818D01*
X018178Y014721D01*
X018226Y014673D01*
X018516Y014572D02*
X018516Y014378D01*
X018420Y014277D02*
X018323Y014277D01*
X018323Y014180D01*
X018226Y014084D02*
X018420Y014084D01*
X018468Y014132D01*
X018468Y014229D01*
X018420Y014277D01*
X018226Y014277D02*
X018178Y014229D01*
X018178Y014132D01*
X018226Y014084D01*
X018178Y013983D02*
X018178Y013789D01*
X018468Y013789D01*
X018468Y013983D01*
X018323Y013886D02*
X018323Y013789D01*
X018323Y013688D02*
X018371Y013640D01*
X018371Y013494D01*
X018371Y013591D02*
X018468Y013688D01*
X018323Y013688D02*
X018226Y013688D01*
X018178Y013640D01*
X018178Y013494D01*
X018468Y013494D01*
X018226Y015115D02*
X018178Y015163D01*
X018178Y015260D01*
X018323Y015260D02*
X018323Y015212D01*
X018371Y015410D02*
X018178Y015410D01*
X018178Y015603D02*
X018371Y015603D01*
X018468Y015506D01*
X018371Y015410D01*
X020736Y014226D02*
X020860Y014226D01*
X020921Y014164D01*
X020921Y014348D02*
X020798Y014472D01*
X021168Y014472D01*
X021168Y014595D02*
X021168Y014348D01*
X021106Y014717D02*
X021168Y014778D01*
X021168Y014902D01*
X021106Y014963D01*
X020983Y014963D01*
X020921Y014902D01*
X020921Y014840D01*
X020983Y014717D01*
X020798Y014717D01*
X020798Y014963D01*
X020921Y015515D02*
X020921Y015638D01*
X020983Y015700D01*
X021168Y015700D01*
X021168Y015515D01*
X021106Y015453D01*
X021045Y015515D01*
X021045Y015700D01*
X021168Y015821D02*
X020798Y015821D01*
X020921Y015821D02*
X020921Y016007D01*
X020983Y016068D01*
X021106Y016068D01*
X021168Y016007D01*
X021168Y015821D01*
X021168Y016190D02*
X021168Y016313D01*
X021168Y016251D02*
X020798Y016251D01*
X020798Y016190D01*
X020860Y016435D02*
X020921Y016435D01*
X020983Y016497D01*
X020983Y016682D01*
X020860Y016682D02*
X020798Y016620D01*
X020798Y016497D01*
X020860Y016435D01*
X021106Y016435D02*
X021168Y016497D01*
X021168Y016620D01*
X021106Y016682D01*
X020860Y016682D01*
X020798Y016804D02*
X020798Y017050D01*
X020860Y017050D01*
X021106Y016804D01*
X021168Y016804D01*
X021106Y017172D02*
X020860Y017172D01*
X020798Y017234D01*
X020798Y017357D01*
X020860Y017419D01*
X021106Y017172D01*
X021168Y017234D01*
X021168Y017357D01*
X021106Y017419D01*
X020860Y017419D01*
X020860Y013674D02*
X020921Y013674D01*
X020983Y013613D01*
X021045Y013674D01*
X021106Y013674D01*
X021168Y013613D01*
X021168Y013489D01*
X021106Y013428D01*
X021106Y013306D02*
X021168Y013244D01*
X021168Y013121D01*
X021106Y013059D01*
X020983Y012938D02*
X020983Y012691D01*
X020798Y012876D01*
X021168Y012876D01*
X020983Y013183D02*
X020983Y013244D01*
X021045Y013306D01*
X021106Y013306D01*
X020983Y013244D02*
X020921Y013306D01*
X020860Y013306D01*
X020798Y013244D01*
X020798Y013121D01*
X020860Y013059D01*
X020860Y013428D02*
X020798Y013489D01*
X020798Y013613D01*
X020860Y013674D01*
X020983Y013613D02*
X020983Y013551D01*
X020798Y012569D02*
X020798Y012323D01*
X021168Y012323D01*
X021168Y012569D01*
X020983Y012446D02*
X020983Y012323D01*
X020798Y012201D02*
X021168Y012201D01*
X021168Y011954D02*
X020798Y011954D01*
X020921Y012078D01*
X020798Y012201D01*
X019847Y010425D02*
X019654Y010425D01*
X019654Y010279D01*
X019750Y010328D01*
X019799Y010328D01*
X019847Y010279D01*
X019847Y010183D01*
X019799Y010134D01*
X019702Y010134D01*
X019654Y010183D01*
X019552Y010134D02*
X019359Y010134D01*
X019456Y010134D02*
X019456Y010425D01*
X019359Y010328D01*
X019258Y010328D02*
X019209Y010279D01*
X019064Y010279D01*
X019064Y010134D02*
X019209Y010134D01*
X019258Y010183D01*
X019258Y010231D01*
X019209Y010279D01*
X019258Y010328D02*
X019258Y010376D01*
X019209Y010425D01*
X019064Y010425D01*
X019064Y010134D01*
X019064Y009425D02*
X019209Y009425D01*
X019258Y009376D01*
X019258Y009328D01*
X019209Y009279D01*
X019064Y009279D01*
X019064Y009134D02*
X019209Y009134D01*
X019258Y009183D01*
X019258Y009231D01*
X019209Y009279D01*
X019359Y009328D02*
X019456Y009425D01*
X019456Y009134D01*
X019552Y009134D02*
X019359Y009134D01*
X019064Y009134D02*
X019064Y009425D01*
X019654Y009279D02*
X019847Y009279D01*
X019799Y009134D02*
X019799Y009425D01*
X019654Y009279D01*
X019702Y008425D02*
X019654Y008376D01*
X019702Y008425D02*
X019799Y008425D01*
X019847Y008376D01*
X019847Y008328D01*
X019799Y008279D01*
X019847Y008231D01*
X019847Y008183D01*
X019799Y008134D01*
X019702Y008134D01*
X019654Y008183D01*
X019552Y008134D02*
X019359Y008134D01*
X019456Y008134D02*
X019456Y008425D01*
X019359Y008328D01*
X019258Y008328D02*
X019209Y008279D01*
X019064Y008279D01*
X019064Y008134D02*
X019064Y008425D01*
X019209Y008425D01*
X019258Y008376D01*
X019258Y008328D01*
X019209Y008279D02*
X019258Y008231D01*
X019258Y008183D01*
X019209Y008134D01*
X019064Y008134D01*
X019750Y008279D02*
X019799Y008279D01*
X019799Y007425D02*
X019702Y007425D01*
X019654Y007376D01*
X019654Y007328D01*
X019702Y007279D01*
X019847Y007279D01*
X019847Y007183D02*
X019847Y007376D01*
X019799Y007425D01*
X019847Y007183D02*
X019799Y007134D01*
X019702Y007134D01*
X019654Y007183D01*
X019552Y007183D02*
X019504Y007134D01*
X019359Y007134D01*
X019359Y007425D01*
X019504Y007425D01*
X019552Y007376D01*
X019552Y007328D01*
X019504Y007279D01*
X019359Y007279D01*
X019504Y007279D02*
X019552Y007231D01*
X019552Y007183D01*
X019504Y005425D02*
X019359Y005425D01*
X019359Y005134D01*
X019504Y005134D01*
X019552Y005183D01*
X019552Y005231D01*
X019504Y005279D01*
X019359Y005279D01*
X019504Y005279D02*
X019552Y005328D01*
X019552Y005376D01*
X019504Y005425D01*
X019654Y005376D02*
X019654Y005328D01*
X019702Y005279D01*
X019799Y005279D01*
X019847Y005231D01*
X019847Y005183D01*
X019799Y005134D01*
X019702Y005134D01*
X019654Y005183D01*
X019654Y005231D01*
X019702Y005279D01*
X019799Y005279D02*
X019847Y005328D01*
X019847Y005376D01*
X019799Y005425D01*
X019702Y005425D01*
X019654Y005376D01*
X019654Y004425D02*
X019847Y004425D01*
X019847Y004376D01*
X019654Y004183D01*
X019654Y004134D01*
X019552Y004183D02*
X019504Y004134D01*
X019359Y004134D01*
X019359Y004425D01*
X019504Y004425D01*
X019552Y004376D01*
X019552Y004328D01*
X019504Y004279D01*
X019359Y004279D01*
X019504Y004279D02*
X019552Y004231D01*
X019552Y004183D01*
X019552Y003425D02*
X019552Y003134D01*
X019359Y003425D01*
X019359Y003134D01*
X019258Y003183D02*
X019258Y003279D01*
X019161Y003279D01*
X019258Y003183D02*
X019209Y003134D01*
X019113Y003134D01*
X019064Y003183D01*
X019064Y003376D01*
X019113Y003425D01*
X019209Y003425D01*
X019258Y003376D01*
X019654Y003425D02*
X019654Y003134D01*
X019799Y003134D01*
X019847Y003183D01*
X019847Y003376D01*
X019799Y003425D01*
X019654Y003425D01*
X019654Y002425D02*
X019654Y002231D01*
X019750Y002134D01*
X019847Y002231D01*
X019847Y002425D01*
X019552Y002425D02*
X019359Y002425D01*
X019359Y002279D01*
X019456Y002328D01*
X019504Y002328D01*
X019552Y002279D01*
X019552Y002183D01*
X019504Y002134D01*
X019407Y002134D01*
X019359Y002183D01*
X015540Y008465D02*
X015346Y008465D01*
X015298Y008513D01*
X015298Y008610D01*
X015346Y008658D01*
X015443Y008760D02*
X015298Y008905D01*
X015588Y008905D01*
X015443Y008953D02*
X015443Y008760D01*
X015540Y008658D02*
X015588Y008610D01*
X015588Y008513D01*
X015540Y008465D01*
D12*
X014733Y008489D02*
X014733Y008889D01*
X013199Y008189D02*
X013201Y008251D01*
X013207Y008314D01*
X013217Y008375D01*
X013231Y008436D01*
X013248Y008496D01*
X013269Y008555D01*
X013295Y008612D01*
X013323Y008667D01*
X013355Y008721D01*
X013391Y008772D01*
X013429Y008822D01*
X013471Y008868D01*
X013515Y008912D01*
X013563Y008953D01*
X013612Y008991D01*
X013664Y009025D01*
X013718Y009056D01*
X013774Y009084D01*
X013832Y009108D01*
X013891Y009129D01*
X013951Y009145D01*
X014012Y009158D01*
X014074Y009167D01*
X014136Y009172D01*
X014199Y009173D01*
X014261Y009170D01*
X014323Y009163D01*
X014385Y009152D01*
X014445Y009137D01*
X014505Y009119D01*
X014563Y009097D01*
X014620Y009071D01*
X014675Y009041D01*
X014728Y009008D01*
X014779Y008972D01*
X014827Y008933D01*
X014873Y008890D01*
X014916Y008845D01*
X014956Y008797D01*
X014993Y008747D01*
X015027Y008694D01*
X015058Y008640D01*
X015084Y008584D01*
X015108Y008526D01*
X015127Y008466D01*
X015143Y008406D01*
X015155Y008344D01*
X015163Y008283D01*
X015167Y008220D01*
X015167Y008158D01*
X015163Y008095D01*
X015155Y008034D01*
X015143Y007972D01*
X015127Y007912D01*
X015108Y007852D01*
X015084Y007794D01*
X015058Y007738D01*
X015027Y007684D01*
X014993Y007631D01*
X014956Y007581D01*
X014916Y007533D01*
X014873Y007488D01*
X014827Y007445D01*
X014779Y007406D01*
X014728Y007370D01*
X014675Y007337D01*
X014620Y007307D01*
X014563Y007281D01*
X014505Y007259D01*
X014445Y007241D01*
X014385Y007226D01*
X014323Y007215D01*
X014261Y007208D01*
X014199Y007205D01*
X014136Y007206D01*
X014074Y007211D01*
X014012Y007220D01*
X013951Y007233D01*
X013891Y007249D01*
X013832Y007270D01*
X013774Y007294D01*
X013718Y007322D01*
X013664Y007353D01*
X013612Y007387D01*
X013563Y007425D01*
X013515Y007466D01*
X013471Y007510D01*
X013429Y007556D01*
X013391Y007606D01*
X013355Y007657D01*
X013323Y007711D01*
X013295Y007766D01*
X013269Y007823D01*
X013248Y007882D01*
X013231Y007942D01*
X013217Y008003D01*
X013207Y008064D01*
X013201Y008127D01*
X013199Y008189D01*
X017983Y013399D02*
X017983Y015979D01*
X019383Y015979D01*
X019383Y013399D01*
X017983Y013399D01*
X020433Y010689D02*
X020183Y010439D01*
X020183Y009939D01*
X020433Y009689D01*
X020183Y009439D01*
X020183Y008939D01*
X020433Y008689D01*
X020183Y008439D01*
X020183Y007939D01*
X020433Y007689D01*
X020183Y007439D01*
X020183Y006939D01*
X020433Y006689D01*
X020933Y006689D01*
X021183Y006939D01*
X021183Y007439D01*
X020933Y007689D01*
X021183Y007939D01*
X021183Y008439D01*
X020933Y008689D01*
X021183Y008939D01*
X021183Y009439D01*
X020933Y009689D01*
X021183Y009939D01*
X021183Y010439D01*
X020933Y010689D01*
X020433Y010689D01*
X020433Y005689D02*
X020183Y005439D01*
X020183Y004939D01*
X020433Y004689D01*
X020183Y004439D01*
X020183Y003939D01*
X020433Y003689D01*
X020183Y003439D01*
X020183Y002939D01*
X020433Y002689D01*
X020183Y002439D01*
X020183Y001939D01*
X020433Y001689D01*
X020933Y001689D01*
X021183Y001939D01*
X021183Y002439D01*
X020933Y002689D01*
X021183Y002939D01*
X021183Y003439D01*
X020933Y003689D01*
X021183Y003939D01*
X021183Y004439D01*
X020933Y004689D01*
X021183Y004939D01*
X021183Y005439D01*
X020933Y005689D01*
X020433Y005689D01*
X014199Y014189D02*
X014201Y014251D01*
X014207Y014314D01*
X014217Y014375D01*
X014231Y014436D01*
X014248Y014496D01*
X014269Y014555D01*
X014295Y014612D01*
X014323Y014667D01*
X014355Y014721D01*
X014391Y014772D01*
X014429Y014822D01*
X014471Y014868D01*
X014515Y014912D01*
X014563Y014953D01*
X014612Y014991D01*
X014664Y015025D01*
X014718Y015056D01*
X014774Y015084D01*
X014832Y015108D01*
X014891Y015129D01*
X014951Y015145D01*
X015012Y015158D01*
X015074Y015167D01*
X015136Y015172D01*
X015199Y015173D01*
X015261Y015170D01*
X015323Y015163D01*
X015385Y015152D01*
X015445Y015137D01*
X015505Y015119D01*
X015563Y015097D01*
X015620Y015071D01*
X015675Y015041D01*
X015728Y015008D01*
X015779Y014972D01*
X015827Y014933D01*
X015873Y014890D01*
X015916Y014845D01*
X015956Y014797D01*
X015993Y014747D01*
X016027Y014694D01*
X016058Y014640D01*
X016084Y014584D01*
X016108Y014526D01*
X016127Y014466D01*
X016143Y014406D01*
X016155Y014344D01*
X016163Y014283D01*
X016167Y014220D01*
X016167Y014158D01*
X016163Y014095D01*
X016155Y014034D01*
X016143Y013972D01*
X016127Y013912D01*
X016108Y013852D01*
X016084Y013794D01*
X016058Y013738D01*
X016027Y013684D01*
X015993Y013631D01*
X015956Y013581D01*
X015916Y013533D01*
X015873Y013488D01*
X015827Y013445D01*
X015779Y013406D01*
X015728Y013370D01*
X015675Y013337D01*
X015620Y013307D01*
X015563Y013281D01*
X015505Y013259D01*
X015445Y013241D01*
X015385Y013226D01*
X015323Y013215D01*
X015261Y013208D01*
X015199Y013205D01*
X015136Y013206D01*
X015074Y013211D01*
X015012Y013220D01*
X014951Y013233D01*
X014891Y013249D01*
X014832Y013270D01*
X014774Y013294D01*
X014718Y013322D01*
X014664Y013353D01*
X014612Y013387D01*
X014563Y013425D01*
X014515Y013466D01*
X014471Y013510D01*
X014429Y013556D01*
X014391Y013606D01*
X014355Y013657D01*
X014323Y013711D01*
X014295Y013766D01*
X014269Y013823D01*
X014248Y013882D01*
X014231Y013942D01*
X014217Y014003D01*
X014207Y014064D01*
X014201Y014127D01*
X014199Y014189D01*
X014483Y014739D02*
X014883Y014739D01*
X007683Y019439D02*
X007433Y019189D01*
X006933Y019189D01*
X006683Y019439D01*
X006433Y019189D01*
X005933Y019189D01*
X005683Y019439D01*
X005433Y019189D01*
X004933Y019189D01*
X004683Y019439D01*
X004433Y019189D01*
X003933Y019189D01*
X003683Y019439D01*
X003433Y019189D01*
X002933Y019189D01*
X002683Y019439D01*
X002683Y019939D01*
X002933Y020189D01*
X003433Y020189D01*
X003683Y019939D01*
X003933Y020189D01*
X004433Y020189D01*
X004683Y019939D01*
X004933Y020189D01*
X005433Y020189D01*
X005683Y019939D01*
X005933Y020189D01*
X006433Y020189D01*
X006683Y019939D01*
X006933Y020189D01*
X007433Y020189D01*
X007683Y019939D01*
X007683Y019439D01*
X002683Y015439D02*
X002683Y014939D01*
X002433Y014689D01*
X002683Y014439D01*
X002683Y013939D01*
X002433Y013689D01*
X002683Y013439D01*
X002683Y012939D01*
X002433Y012689D01*
X002683Y012439D01*
X002683Y011939D01*
X002433Y011689D01*
X001933Y011689D01*
X001683Y011939D01*
X001683Y012439D01*
X001933Y012689D01*
X001683Y012939D01*
X001683Y013439D01*
X001933Y013689D01*
X001683Y013939D01*
X001683Y014439D01*
X001933Y014689D01*
X001683Y014939D01*
X001683Y015439D01*
X001933Y015689D01*
X002433Y015689D01*
X002683Y015439D01*
X002433Y010689D02*
X001933Y010689D01*
X001683Y010439D01*
X001683Y009939D01*
X001933Y009689D01*
X001683Y009439D01*
X001683Y008939D01*
X001933Y008689D01*
X001683Y008439D01*
X001683Y007939D01*
X001933Y007689D01*
X001683Y007439D01*
X001683Y006939D01*
X001933Y006689D01*
X002433Y006689D01*
X002683Y006939D01*
X002683Y007439D01*
X002433Y007689D01*
X002683Y007939D01*
X002683Y008439D01*
X002433Y008689D01*
X002683Y008939D01*
X002683Y009439D01*
X002433Y009689D01*
X002683Y009939D01*
X002683Y010439D01*
X002433Y010689D01*
X002433Y005689D02*
X001933Y005689D01*
X001683Y005439D01*
X001683Y004939D01*
X001933Y004689D01*
X001683Y004439D01*
X001683Y003939D01*
X001933Y003689D01*
X001683Y003439D01*
X001683Y002939D01*
X001933Y002689D01*
X001683Y002439D01*
X001683Y001939D01*
X001933Y001689D01*
X002433Y001689D01*
X002683Y001939D01*
X002683Y002439D01*
X002433Y002689D01*
X002683Y002939D01*
X002683Y003439D01*
X002433Y003689D01*
X002683Y003939D01*
X002683Y004439D01*
X002433Y004689D01*
X002683Y004939D01*
X002683Y005439D01*
X002433Y005689D01*
D13*
X004199Y004721D02*
X004199Y008658D01*
X006167Y008658D01*
X006167Y004721D01*
X004199Y004721D01*
X008433Y002189D02*
X008683Y002189D01*
X008683Y016189D01*
X010183Y016189D01*
X010185Y016145D01*
X010191Y016102D01*
X010200Y016060D01*
X010213Y016018D01*
X010230Y015978D01*
X010250Y015939D01*
X010273Y015902D01*
X010300Y015868D01*
X010329Y015835D01*
X010362Y015806D01*
X010396Y015779D01*
X010433Y015756D01*
X010472Y015736D01*
X010512Y015719D01*
X010554Y015706D01*
X010596Y015697D01*
X010639Y015691D01*
X010683Y015689D01*
X010727Y015691D01*
X010770Y015697D01*
X010812Y015706D01*
X010854Y015719D01*
X010894Y015736D01*
X010933Y015756D01*
X010970Y015779D01*
X011004Y015806D01*
X011037Y015835D01*
X011066Y015868D01*
X011093Y015902D01*
X011116Y015939D01*
X011136Y015978D01*
X011153Y016018D01*
X011166Y016060D01*
X011175Y016102D01*
X011181Y016145D01*
X011183Y016189D01*
X012683Y016189D01*
X012683Y002189D01*
X008683Y002189D01*
X009002Y019189D02*
X009004Y019258D01*
X009010Y019326D01*
X009020Y019394D01*
X009034Y019461D01*
X009052Y019528D01*
X009073Y019593D01*
X009099Y019657D01*
X009128Y019719D01*
X009160Y019779D01*
X009196Y019838D01*
X009236Y019894D01*
X009278Y019948D01*
X009324Y019999D01*
X009373Y020048D01*
X009424Y020094D01*
X009478Y020136D01*
X009534Y020176D01*
X009592Y020212D01*
X009653Y020244D01*
X009715Y020273D01*
X009779Y020299D01*
X009844Y020320D01*
X009911Y020338D01*
X009978Y020352D01*
X010046Y020362D01*
X010114Y020368D01*
X010183Y020370D01*
X010252Y020368D01*
X010320Y020362D01*
X010388Y020352D01*
X010455Y020338D01*
X010522Y020320D01*
X010587Y020299D01*
X010651Y020273D01*
X010713Y020244D01*
X010773Y020212D01*
X010832Y020176D01*
X010888Y020136D01*
X010942Y020094D01*
X010993Y020048D01*
X011042Y019999D01*
X011088Y019948D01*
X011130Y019894D01*
X011170Y019838D01*
X011206Y019779D01*
X011238Y019719D01*
X011267Y019657D01*
X011293Y019593D01*
X011314Y019528D01*
X011332Y019461D01*
X011346Y019394D01*
X011356Y019326D01*
X011362Y019258D01*
X011364Y019189D01*
X011362Y019120D01*
X011356Y019052D01*
X011346Y018984D01*
X011332Y018917D01*
X011314Y018850D01*
X011293Y018785D01*
X011267Y018721D01*
X011238Y018659D01*
X011206Y018598D01*
X011170Y018540D01*
X011130Y018484D01*
X011088Y018430D01*
X011042Y018379D01*
X010993Y018330D01*
X010942Y018284D01*
X010888Y018242D01*
X010832Y018202D01*
X010774Y018166D01*
X010713Y018134D01*
X010651Y018105D01*
X010587Y018079D01*
X010522Y018058D01*
X010455Y018040D01*
X010388Y018026D01*
X010320Y018016D01*
X010252Y018010D01*
X010183Y018008D01*
X010114Y018010D01*
X010046Y018016D01*
X009978Y018026D01*
X009911Y018040D01*
X009844Y018058D01*
X009779Y018079D01*
X009715Y018105D01*
X009653Y018134D01*
X009592Y018166D01*
X009534Y018202D01*
X009478Y018242D01*
X009424Y018284D01*
X009373Y018330D01*
X009324Y018379D01*
X009278Y018430D01*
X009236Y018484D01*
X009196Y018540D01*
X009160Y018598D01*
X009128Y018659D01*
X009099Y018721D01*
X009073Y018785D01*
X009052Y018850D01*
X009034Y018917D01*
X009020Y018984D01*
X009010Y019052D01*
X009004Y019120D01*
X009002Y019189D01*
X012002Y019189D02*
X012004Y019258D01*
X012010Y019326D01*
X012020Y019394D01*
X012034Y019461D01*
X012052Y019528D01*
X012073Y019593D01*
X012099Y019657D01*
X012128Y019719D01*
X012160Y019779D01*
X012196Y019838D01*
X012236Y019894D01*
X012278Y019948D01*
X012324Y019999D01*
X012373Y020048D01*
X012424Y020094D01*
X012478Y020136D01*
X012534Y020176D01*
X012592Y020212D01*
X012653Y020244D01*
X012715Y020273D01*
X012779Y020299D01*
X012844Y020320D01*
X012911Y020338D01*
X012978Y020352D01*
X013046Y020362D01*
X013114Y020368D01*
X013183Y020370D01*
X013252Y020368D01*
X013320Y020362D01*
X013388Y020352D01*
X013455Y020338D01*
X013522Y020320D01*
X013587Y020299D01*
X013651Y020273D01*
X013713Y020244D01*
X013773Y020212D01*
X013832Y020176D01*
X013888Y020136D01*
X013942Y020094D01*
X013993Y020048D01*
X014042Y019999D01*
X014088Y019948D01*
X014130Y019894D01*
X014170Y019838D01*
X014206Y019779D01*
X014238Y019719D01*
X014267Y019657D01*
X014293Y019593D01*
X014314Y019528D01*
X014332Y019461D01*
X014346Y019394D01*
X014356Y019326D01*
X014362Y019258D01*
X014364Y019189D01*
X014362Y019120D01*
X014356Y019052D01*
X014346Y018984D01*
X014332Y018917D01*
X014314Y018850D01*
X014293Y018785D01*
X014267Y018721D01*
X014238Y018659D01*
X014206Y018598D01*
X014170Y018540D01*
X014130Y018484D01*
X014088Y018430D01*
X014042Y018379D01*
X013993Y018330D01*
X013942Y018284D01*
X013888Y018242D01*
X013832Y018202D01*
X013774Y018166D01*
X013713Y018134D01*
X013651Y018105D01*
X013587Y018079D01*
X013522Y018058D01*
X013455Y018040D01*
X013388Y018026D01*
X013320Y018016D01*
X013252Y018010D01*
X013183Y018008D01*
X013114Y018010D01*
X013046Y018016D01*
X012978Y018026D01*
X012911Y018040D01*
X012844Y018058D01*
X012779Y018079D01*
X012715Y018105D01*
X012653Y018134D01*
X012592Y018166D01*
X012534Y018202D01*
X012478Y018242D01*
X012424Y018284D01*
X012373Y018330D01*
X012324Y018379D01*
X012278Y018430D01*
X012236Y018484D01*
X012196Y018540D01*
X012160Y018598D01*
X012128Y018659D01*
X012099Y018721D01*
X012073Y018785D01*
X012052Y018850D01*
X012034Y018917D01*
X012020Y018984D01*
X012010Y019052D01*
X012004Y019120D01*
X012002Y019189D01*
D14*
X011351Y017670D02*
X011045Y017670D01*
X011198Y017670D02*
X011198Y017209D01*
X010891Y017209D02*
X010584Y017209D01*
X010584Y017670D01*
X010891Y017670D01*
X010738Y017439D02*
X010584Y017439D01*
X010431Y017363D02*
X010431Y017286D01*
X010354Y017209D01*
X010201Y017209D01*
X010124Y017286D01*
X010201Y017439D02*
X010354Y017439D01*
X010431Y017363D01*
X010431Y017593D02*
X010354Y017670D01*
X010201Y017670D01*
X010124Y017593D01*
X010124Y017516D01*
X010201Y017439D01*
X009970Y017209D02*
X009664Y017209D01*
X009664Y017670D01*
X009970Y017670D01*
X009817Y017439D02*
X009664Y017439D01*
X009510Y017439D02*
X009433Y017363D01*
X009203Y017363D01*
X009357Y017363D02*
X009510Y017209D01*
X009510Y017439D02*
X009510Y017593D01*
X009433Y017670D01*
X009203Y017670D01*
X009203Y017209D01*
X008613Y017145D02*
X008460Y016992D01*
X008460Y017069D02*
X008460Y016839D01*
X008613Y016839D02*
X008153Y016839D01*
X008153Y017069D01*
X008230Y017145D01*
X008383Y017145D01*
X008460Y017069D01*
X008613Y017299D02*
X008613Y017606D01*
X008613Y017452D02*
X008153Y017452D01*
X008306Y017299D01*
X005713Y016350D02*
X005253Y016350D01*
X005483Y016120D01*
X005483Y016427D01*
X005483Y015966D02*
X005330Y015966D01*
X005253Y015889D01*
X005253Y015659D01*
X005713Y015659D01*
X005560Y015659D02*
X005560Y015889D01*
X005483Y015966D01*
X005560Y015813D02*
X005713Y015966D01*
X012503Y015973D02*
X012580Y015897D01*
X012886Y015897D01*
X012963Y015973D01*
X012963Y016127D01*
X012886Y016204D01*
X012886Y016357D02*
X012963Y016434D01*
X012963Y016587D01*
X012886Y016664D01*
X012810Y016664D01*
X012733Y016587D01*
X012733Y016511D01*
X012733Y016587D02*
X012656Y016664D01*
X012580Y016664D01*
X012503Y016587D01*
X012503Y016434D01*
X012580Y016357D01*
X012580Y016204D02*
X012503Y016127D01*
X012503Y015973D01*
X014063Y017459D02*
X014217Y017459D01*
X014294Y017536D01*
X014294Y017920D01*
X014447Y017843D02*
X014447Y017766D01*
X014524Y017689D01*
X014677Y017689D01*
X014754Y017613D01*
X014754Y017536D01*
X014677Y017459D01*
X014524Y017459D01*
X014447Y017536D01*
X014447Y017843D02*
X014524Y017920D01*
X014677Y017920D01*
X014754Y017843D01*
X014907Y017920D02*
X014907Y017459D01*
X015214Y017459D01*
X015368Y017459D02*
X015368Y017920D01*
X015598Y017920D01*
X015675Y017843D01*
X015675Y017689D01*
X015598Y017613D01*
X015368Y017613D01*
X015521Y017613D02*
X015675Y017459D01*
X015214Y017920D02*
X014907Y017920D01*
X014907Y017689D02*
X015061Y017689D01*
X014063Y017459D02*
X013987Y017536D01*
X013987Y017920D01*
X017003Y015867D02*
X017096Y015774D01*
X017003Y015867D02*
X017283Y015867D01*
X017283Y015774D02*
X017283Y015961D01*
X017279Y015110D02*
X017279Y014923D01*
X017093Y015110D01*
X017046Y015110D01*
X016999Y015063D01*
X016999Y014969D01*
X017046Y014923D01*
X017050Y014200D02*
X017096Y014200D01*
X017143Y014153D01*
X017190Y014200D01*
X017236Y014200D01*
X017283Y014153D01*
X017283Y014059D01*
X017236Y014013D01*
X017143Y014106D02*
X017143Y014153D01*
X017050Y014200D02*
X017003Y014153D01*
X017003Y014059D01*
X017050Y014013D01*
X017780Y013120D02*
X017703Y013043D01*
X017703Y012736D01*
X017780Y012659D01*
X017933Y012659D01*
X018010Y012736D01*
X018164Y012659D02*
X018470Y012966D01*
X018470Y013043D01*
X018394Y013120D01*
X018240Y013120D01*
X018164Y013043D01*
X018010Y013043D02*
X017933Y013120D01*
X017780Y013120D01*
X018164Y012659D02*
X018470Y012659D01*
X019703Y013805D02*
X019843Y013665D01*
X019843Y013851D01*
X019983Y013805D02*
X019703Y013805D01*
X015896Y011720D02*
X015896Y011259D01*
X015743Y011259D02*
X016050Y011259D01*
X015743Y011566D02*
X015896Y011720D01*
X015589Y011643D02*
X015513Y011720D01*
X015359Y011720D01*
X015282Y011643D01*
X015282Y011336D01*
X015359Y011259D01*
X015513Y011259D01*
X015589Y011336D01*
X015213Y005427D02*
X015213Y005120D01*
X014906Y005427D01*
X014830Y005427D01*
X014753Y005350D01*
X014753Y005196D01*
X014830Y005120D01*
X014830Y004966D02*
X014753Y004889D01*
X014753Y004659D01*
X015213Y004659D01*
X015060Y004659D02*
X015060Y004889D01*
X014983Y004966D01*
X014830Y004966D01*
X015060Y004813D02*
X015213Y004966D01*
X016253Y004889D02*
X016253Y004659D01*
X016713Y004659D01*
X016560Y004659D02*
X016560Y004889D01*
X016483Y004966D01*
X016330Y004966D01*
X016253Y004889D01*
X016253Y005120D02*
X016483Y005120D01*
X016406Y005273D01*
X016406Y005350D01*
X016483Y005427D01*
X016636Y005427D01*
X016713Y005350D01*
X016713Y005196D01*
X016636Y005120D01*
X016713Y004966D02*
X016560Y004813D01*
X016253Y005120D02*
X016253Y005427D01*
X016663Y003056D02*
X016663Y002749D01*
X016663Y002902D02*
X016203Y002902D01*
X016356Y002749D01*
X016280Y002595D02*
X016203Y002519D01*
X016203Y002288D01*
X016663Y002288D01*
X016663Y002519D01*
X016586Y002595D01*
X016280Y002595D01*
X016203Y002135D02*
X016203Y001828D01*
X016663Y001828D01*
X016663Y002135D01*
X016433Y001982D02*
X016433Y001828D01*
X016663Y001675D02*
X016663Y001368D01*
X016203Y001368D01*
X015163Y001368D02*
X015163Y001675D01*
X015163Y001828D02*
X015163Y002135D01*
X015163Y002288D02*
X015163Y002519D01*
X015086Y002595D01*
X014780Y002595D01*
X014703Y002519D01*
X014703Y002288D01*
X015163Y002288D01*
X014933Y001982D02*
X014933Y001828D01*
X014703Y001828D02*
X015163Y001828D01*
X014703Y001828D02*
X014703Y002135D01*
X014780Y002749D02*
X014703Y002826D01*
X014703Y002979D01*
X014780Y003056D01*
X014856Y003056D01*
X015163Y002749D01*
X015163Y003056D01*
X013713Y004659D02*
X013253Y004659D01*
X013253Y004889D01*
X013330Y004966D01*
X013483Y004966D01*
X013560Y004889D01*
X013560Y004659D01*
X013560Y004813D02*
X013713Y004966D01*
X013636Y005120D02*
X013713Y005196D01*
X013713Y005350D01*
X013636Y005427D01*
X013560Y005427D01*
X013483Y005350D01*
X013483Y005273D01*
X013483Y005350D02*
X013406Y005427D01*
X013330Y005427D01*
X013253Y005350D01*
X013253Y005196D01*
X013330Y005120D01*
X014703Y001368D02*
X015163Y001368D01*
X017703Y001828D02*
X017703Y002058D01*
X017779Y002135D01*
X017933Y002135D01*
X018010Y002058D01*
X018010Y001828D01*
X018163Y001828D02*
X017703Y001828D01*
X017703Y002289D02*
X018163Y002289D01*
X018010Y002442D01*
X018163Y002595D01*
X017703Y002595D01*
X017703Y002749D02*
X017703Y002979D01*
X017779Y003056D01*
X017933Y003056D01*
X018010Y002979D01*
X018010Y002749D01*
X018163Y002749D02*
X017703Y002749D01*
X018010Y002902D02*
X018163Y003056D01*
D15*
X017454Y002468D03*
X016912Y002468D03*
X015954Y002468D03*
X015412Y002468D03*
X014454Y002468D03*
X013912Y002468D03*
D16*
X014183Y002620D03*
X015683Y002620D03*
X017183Y002620D03*
M02*
