%
M48
M72
T01C0.0236
T02C0.0276
T03C0.0315
T04C0.0400
T05C0.0748
%
T01
X12183Y16689
T02
X9183Y15689
X9183Y14689
X9183Y13689
X9183Y12689
X9183Y11689
X9183Y10689
X9183Y9689
X9183Y8689
X9183Y7689
X9183Y6689
X9183Y5689
X9183Y4689
X9183Y3689
X9183Y2689
X12183Y2689
X13183Y2689
X12183Y3689
X12183Y4689
X12183Y5689
X12183Y6689
X12183Y7689
X12183Y8689
X12183Y9689
X12183Y10689
X12183Y11689
X12183Y12689
X12183Y13689
X12183Y14689
X12183Y15689
X13183Y18189
X13183Y20189
X10183Y20189
X10183Y18189
X14683Y14189
X15683Y14189
X15683Y16189
X19683Y12189
X18683Y7689
X16183Y7689
X14183Y7689
X14183Y8689
X5183Y7689
X5183Y6689
X5183Y5689
T03
X17983Y17089
X18683Y17089
X19353Y17089
X19043Y17709
X18353Y17709
T04
X3183Y19689
X4183Y19689
X5183Y19689
X6183Y19689
X7183Y19689
X2183Y15189
X2183Y14189
X2183Y13189
X2183Y12189
X2183Y10189
X2183Y9189
X2183Y8189
X2183Y7189
X2183Y5189
X2183Y4189
X2183Y3189
X2183Y2189
X20683Y2189
X20683Y3189
X20683Y4189
X20683Y5189
X20683Y7189
X20683Y8189
X20683Y9189
X20683Y10189
T05
X17246Y19189
X20120Y19189
M30
